<?xml version="1.0" encoding="UTF-8" standalone="no"?>
<!-- Created with Inkscape (http://www.inkscape.org/) -->

<svg
   xmlns:dc="http://purl.org/dc/elements/1.1/"
   xmlns:cc="http://creativecommons.org/ns#"
   xmlns:rdf="http://www.w3.org/1999/02/22-rdf-syntax-ns#"
   xmlns:svg="http://www.w3.org/2000/svg"
   xmlns="http://www.w3.org/2000/svg"
   xmlns:sodipodi="http://sodipodi.sourceforge.net/DTD/sodipodi-0.dtd"
   xmlns:inkscape="http://www.inkscape.org/namespaces/inkscape"
   version="1.1"
   id="svg45"
   width="64"
   height="47.68"
   viewBox="0 0 64 47.68"
   sodipodi:docname="any-tab-icon-1.svg"
   inkscape:version="0.92.4 (unknown)">
  <path
     style="stroke-width:0.31999999"
     d="m 0,47.066666 c 0,-0.337332 0.140099,-0.661332 0.311331,-0.72 C 0.699064,46.213824 3.887983,37.573027 3.952661,36.48 3.997851,35.716259 3.909351,35.675683 2,35.58473 L 0,35.48946 V 18.864731 2.24 h 3.311988 c 3.167286,0 3.369507,0.041667 4.628519,0.953691 2.41537,1.7496844 2.450592,1.9146412 2.528683,11.842697 0.06222,7.910748 0.124763,8.837025 0.621161,9.2 0.392533,0.287028 2.110257,0.403612 5.946702,0.403612 5.835362,0 6.38718,0.12522 7.982589,1.811432 1.237117,1.307527 1.540358,2.367289 1.540358,5.383228 0,3.359423 -0.124716,3.68534 -1.410236,3.68534 -1.726353,0 -1.824899,0.418566 -0.779416,3.310512 0.518854,1.435219 1.179307,2.789488 1.467673,3.009488 0.667399,0.509171 2.714629,0.51935 3.217979,0.016 0.279475,-0.279475 0.384,-2.707738 0.384,-8.920819 0,-7.165409 0.07646,-8.600269 0.475925,-8.931799 0.261759,-0.21724 0.693759,-0.311392 0.96,-0.209225 0.417007,0.16002 0.483396,1.483964 0.479175,9.555801 -0.0027,5.153524 -0.110695,9.528484 -0.24,9.722138 C 30.681942,43.72081 29.493397,44.16 28.170994,44.16 c -1.387759,0 -2.120073,0.761296 -1.257623,1.307395 0.674476,0.427075 10.003496,0.367738 10.437624,-0.06639 C 38.009347,44.742653 37.426645,44.16 36.109872,44.16 c -1.847274,0 -3.082506,-0.747018 -3.308429,-2.000797 -0.102989,-0.571561 -0.145446,-4.839593 -0.09435,-9.484515 0.08521,-7.745322 0.140874,-8.474712 0.671648,-8.800001 0.464698,-0.284795 0.673476,-0.228573 1.059498,0.285313 0.404038,0.537873 0.468701,1.984637 0.405216,9.06648 -0.06279,7.004438 0.0013,8.475187 0.380502,8.715101 0.703636,0.445318 2.758048,0.350701 3.258836,-0.15009 0.631718,-0.631718 2.260179,-5.221584 2.0484,-5.773475 -0.09853,-0.256758 -0.709472,-0.501267 -1.393328,-0.557635 L 37.92,35.36 37.829267,31.929355 c -0.08516,-3.219813 -0.04056,-3.506455 0.725619,-4.664232 0.448992,-0.678474 1.373428,-1.546684 2.054301,-1.929356 C 41.742698,24.6987 42.297443,24.64 47.184608,24.64 c 3.067299,0 5.600726,-0.140893 5.956429,-0.331259 C 53.729437,23.993839 53.76,23.552455 53.76,15.369573 53.76,10.06569 53.890643,6.4158922 54.100358,5.860832 54.517312,4.7572714 55.863885,3.2975603 57.024109,2.6914316 57.592109,2.3946947 58.935398,2.24 60.944109,2.24 H 64 v 16.624031 16.62403 l -1.84,0.09597 c -1.735747,0.09053 -1.83783,0.141296 -1.801696,0.895968 0.05187,1.083302 2.944938,9.092797 3.332717,9.226666 C 63.86096,45.765335 64,46.233334 64,46.746666 V 47.68 H 61.143261 58.286518 L 57.350909,45.2 c -0.514589,-1.364 -1.411885,-3.848 -1.993997,-5.52 -1.465642,-4.209779 -1.405824,-4.16 -4.99913,-4.16 -3.610848,0 -3.320588,-0.312406 -5.514739,5.935533 C 43.980736,43.910989 43.091178,46.316 42.866243,46.8 L 42.45727,47.68 H 32.152336 21.847401 l -0.814943,-1.84 c -0.448219,-1.012 -1.3429,-3.424 -1.988181,-5.36 -1.717812,-5.153859 -1.521153,-4.96096 -5.051654,-4.955101 -1.623943,0.0026 -3.135248,0.120816 -3.358456,0.26249 C 10.317564,35.988346 7.095249,44.186944 6.180085,47.12 6.029964,47.601133 5.582474,47.68 3.002678,47.68 0.25685,47.68 0,47.62754 0,47.066666 Z M 4.841127,45.12 c 0.687064,-1.222694 3.181356,-8.759846 3.029706,-9.155043 -0.212364,-0.553408 -0.971725,-0.57824 -1.37481,-0.04496 -0.598361,0.791638 -3.336995,8.951667 -3.15953,9.414131 0.220857,0.575546 1.133911,0.445607 1.504634,-0.214131 z m 19.383912,0.28696 c 0.257385,-0.257386 0.01741,-1.293923 -0.885716,-3.825664 -1.750738,-4.907878 -2.122095,-5.724074 -2.706384,-5.948285 -0.953183,-0.365769 -1.266438,0.39561 -0.706167,1.716375 0.282449,0.665836 0.970219,2.506614 1.528378,4.090614 1.425906,4.046582 1.945755,4.791094 2.769889,3.96696 z M 41.211424,45.36 C 41.630701,44.851453 44.48,37.006979 44.48,36.361197 c 0,-0.609399 -0.44623,-0.895466 -1.040874,-0.66728 -0.542889,0.208326 -3.893203,9.270256 -3.601708,9.741907 0.275334,0.445498 0.976073,0.406826 1.374006,-0.07582 z m 19.744922,0.08591 c 0.249827,-0.404228 -2.677021,-8.880874 -3.271783,-9.475636 -0.580851,-0.580851 -1.01807,-0.571657 -1.247501,0.02624 -0.178313,0.464672 2.570826,8.567975 3.176672,9.363495 0.364084,0.478067 1.07224,0.523382 1.342612,0.08591 z M 24.021037,33.268742 c 0.491581,-0.263088 0.617992,-0.674684 0.614246,-2.000001 -0.0058,-2.040458 -0.47334,-3.02629 -1.887268,-3.979136 C 21.714018,26.592794 21.388034,26.56 15.495534,26.56 c -4.822144,0 -6.266375,-0.09655 -6.611861,-0.442041 -0.357436,-0.357437 -0.43106,-2.11827 -0.384666,-9.2 C 8.530567,12.101082 8.432817,7.6466211 8.281786,7.0191584 7.861568,5.2733069 6.722704,4.3994157 4.642947,4.2269459 3.507222,4.1327629 2.710194,4.2225659 2.400486,4.4795968 1.988826,4.8212438 1.92,6.5946835 1.92,16.86022 c 0,7.647445 0.119832,12.205763 0.331259,12.600817 0.304687,0.569314 0.71263,0.618963 5.085763,0.618963 4.095673,0 4.782186,0.07213 4.954262,0.520559 C 12.7487,31.792564 11.964508,32 7.000818,32 2.5976,32 2.24,32.04407 2.24,32.586666 c 0,0.322668 0.096,0.682668 0.213333,0.8 0.361629,0.361628 20.881287,0.249433 21.567704,-0.117924 z M 5.467199,21.312773 C 5.226307,21.022516 5.128318,19.770892 5.188017,17.746732 c 0.07677,-2.603004 0.187699,-3.177354 0.670725,-3.472773 0.462922,-0.283123 0.671051,-0.229649 1.04,0.267203 0.549279,0.739697 0.645727,5.636228 0.129999,6.599875 -0.389572,0.727923 -1.040532,0.799515 -1.561542,0.171736 z M 5.44,11.68 c 0,-0.692756 0.129382,-0.826137 0.72,-0.742256 0.472581,0.06712 0.72,0.322184 0.72,0.742256 0,0.420072 -0.247419,0.675139 -0.72,0.742256 C 5.569382,12.506136 5.44,12.372756 5.44,11.68 Z M 5.35033,8.8679002 C 5.096603,8.2066979 5.592058,7.6007309 6.27834,7.7328966 7.128534,7.8966288 7.065937,9.0934694 6.20072,9.216919 5.827121,9.270225 5.444444,9.1131661 5.350326,8.8679002 Z M 61.897137,33.097142 c 0.441367,-0.441363 0.502858,-2.165721 0.502858,-14.101036 0,-8.76162 -0.117821,-13.8183313 -0.331258,-14.2171431 C 61.803107,4.2826218 61.390112,4.16 59.984042,4.16 c -1.550173,0 -1.892007,0.1269546 -2.948743,1.0951392 L 55.84,6.3502784 55.76108,16.021057 c -0.05377,6.588487 -0.193747,9.80913 -0.439184,10.10486 -0.280918,0.338488 -1.744697,0.434083 -6.64679,0.434083 -6.227936,0 -6.297843,0.0077 -7.499722,0.824381 -0.971613,0.660229 -1.193491,0.994753 -1.114281,1.68 l 0.0989,0.855619 4.733354,0.08863 c 3.834508,0.0718 4.768003,0.178917 4.915801,0.564075 0.100346,0.261495 0.0047,0.68961 -0.212537,0.951369 C 49.280467,31.905013 48.281386,32 44.590774,32 c -3.932534,0 -4.639782,0.07537 -4.807446,0.512294 -0.108122,0.281764 0.0044,0.639559 0.250042,0.795101 0.245648,0.155543 5.152345,0.285011 10.903772,0.287706 9.084183,0.0043 10.523165,-0.06112 10.96,-0.497959 z M 59.344158,23.014375 c -0.282656,-0.457348 -0.287933,-9.402867 -0.0058,-9.859344 0.342058,-0.553458 1.085325,-0.418203 1.450394,0.263932 0.182177,0.340429 0.331243,2.437896 0.331243,4.661037 0,2.223141 -0.149066,4.320608 -0.331258,4.661037 -0.362547,0.677423 -1.107702,0.818419 -1.444579,0.273338 z M 59.316547,10.72214 C 59.205706,10.433303 59.268457,10.04354 59.456,9.856 c 0.487555,-0.4875549 1.411331,-0.041948 1.283974,0.619357 -0.141856,0.736603 -1.167251,0.914377 -1.423433,0.246783 z M 59.2,7.2222563 C 59.2,6.5525811 59.352582,6.4 60.022256,6.4 c 0.669677,0 0.80328,0.1336061 0.72,0.72 -0.06571,0.4627062 -0.359549,0.7565414 -0.822256,0.8222563 -0.586394,0.083281 -0.72,-0.050325 -0.72,-0.72 z M 15.371259,21.461037 c -0.381021,-0.711943 -0.442276,-5.430986 -0.07794,-6.004107 0.174888,-0.275106 2.375789,-0.41039 7.809051,-0.48 4.16104,-0.05331 7.66245,-0.19413 7.78091,-0.312929 0.118459,-0.1188 0.07337,-0.469762 -0.100203,-0.779916 -0.22231,-0.397247 -0.173412,-0.862052 0.165444,-1.572641 0.432848,-0.907692 0.428495,-1.110313 -0.04346,-2.022975 C 30.340132,9.1960106 30.580227,8.2449043 31.51111,7.8876909 32.541629,7.4922438 32.96,8.0131046 32.96,9.6915171 c 0,0.8926739 0.175021,2.1070589 0.388938,2.6986329 0.295385,0.816873 0.300147,1.217766 0.01981,1.666678 -0.323248,0.517603 -0.247277,0.615463 0.611062,0.787131 0.539101,0.107823 4.049693,0.196041 7.801306,0.196041 4.485024,0 6.89334,0.116861 7.032,0.34122 0.381212,0.616815 0.2332,5.729202 -0.180295,6.227434 C 48.29768,22.012472 45.910758,22.08 31.972076,22.08 c -15.75773,0 -16.27998,-0.01947 -16.600817,-0.618963 z M 34.48,19.958308 c 0.608307,-0.16302 0.72,-0.411321 0.72,-1.600614 v -1.407661 l -9.04,0.08498 -9.04,0.08498 -0.105188,1.105875 c -0.17856,1.877261 0.0857,1.934649 8.88635,1.929755 4.322361,-0.0024 8.182838,-0.0912 8.578838,-0.197322 z M 46.774122,19.76 c 0.692825,-0.558228 0.868524,-1.234232 0.546195,-2.101483 -0.212509,-0.571766 -0.477552,-0.718255 -1.157952,-0.64 -0.821543,0.09449 -0.874602,0.189715 -0.769731,1.381483 0.164476,1.869199 0.427792,2.128419 1.381488,1.36 z M 38.4,18.378745 c 0,-1.40531 -0.03369,-1.457379 -0.88,-1.36 -0.800509,0.09211 -0.882669,0.224104 -0.909552,1.461255 -0.028,1.287947 0.01862,1.36 0.88,1.36 C 38.357062,19.84 38.4,19.77102 38.4,18.378745 Z M 41.648,18.88 c 0.0264,-0.528 0.0624,-1.14 0.08,-1.36 0.01907,-0.238222 -0.356266,-0.4 -0.928,-0.4 -0.911443,0 -0.961494,0.06879 -0.989552,1.36 -0.028,1.287947 0.01862,1.36 0.88,1.36 0.786614,0 0.916038,-0.129757 0.957552,-0.96 z M 26.073414,12.789344 c -0.222776,-0.36046 0.692946,-6.6887837 1.136817,-7.8562541 0.150789,-0.3966061 0.678174,-0.9141481 1.171966,-1.1500934 0.493791,-0.235945 0.941848,-0.7366045 0.99568,-1.1125764 0.05383,-0.3759719 0.377833,-0.9369413 0.72,-1.2465987 C 30.440045,1.114164 30.72,0.66712618 30.72,0.43040397 30.72,0.14979831 31.119797,0 31.868706,0 c 1.262817,0 2.050612,0.68822653 2.841124,2.4820356 0.252567,0.5731195 0.812192,1.176237 1.243607,1.3402614 0.431417,0.1640243 0.864221,0.4273859 0.961782,0.585248 0.322771,0.522254 1.515571,7.850657 1.348618,8.285729 -0.206717,0.538692 -1.286951,0.555766 -1.690871,0.02673 C 36.2356,12.278133 35.52,8.5636648 35.52,7.2543678 35.52,6.7594517 35.269296,6.288349 34.901037,6.0912629 34.18999,5.7107218 30.108519,5.6499333 29.54002,6.0114169 c -0.583843,0.3712394 -0.95286,1.6128928 -1.209177,4.0685871 -0.128592,1.232 -0.38127,2.42 -0.561506,2.64 -0.396807,0.484352 -1.413735,0.525933 -1.695923,0.06934 z M 32.48,2.88 c 0,-0.2346667 -0.18,-0.4866667 -0.4,-0.56 -0.237949,-0.079316 -0.4,0.1475556 -0.4,0.56 0,0.4124445 0.162051,0.6393162 0.4,0.56 0.22,-0.073333 0.4,-0.3253333 0.4,-0.56 z"
     id="path55"
     inkscape:connector-curvature="0" />
</svg>
