<?xml version="1.0" encoding="UTF-8" standalone="no"?>
<!-- Created with Inkscape (http://www.inkscape.org/) -->

<svg
   xmlns:dc="http://purl.org/dc/elements/1.1/"
   xmlns:cc="http://creativecommons.org/ns#"
   xmlns:rdf="http://www.w3.org/1999/02/22-rdf-syntax-ns#"
   xmlns:svg="http://www.w3.org/2000/svg"
   xmlns="http://www.w3.org/2000/svg"
   xmlns:sodipodi="http://sodipodi.sourceforge.net/DTD/sodipodi-0.dtd"
   xmlns:inkscape="http://www.inkscape.org/namespaces/inkscape"
   version="1.1"
   id="svg87"
   width="64"
   height="64"
   viewBox="0 0 64 64"
   sodipodi:docname="any-tab-icon-3.svg"
   inkscape:version="0.92.4 (unknown)">
  <path
     style="stroke-width:0.31999999"
     d="m 0,59.177143 c 0,-3.860316 0.0958,-4.918656 0.48,-5.302858 0.310628,-0.310626 0.48394,-1.121194 0.491164,-2.297143 0.0061,-0.999426 0.226507,-2.969141 0.489703,-4.377141 0.263196,-1.408001 0.614329,-3.890541 0.780296,-5.516759 0.165967,-1.626218 0.447136,-3.858218 0.624821,-4.96 0.9471,-5.872774 1.37889,-10.547631 1.414423,-15.313572 0.0297,-3.983237 0.149348,-5.442698 0.478776,-5.84 C 5.145791,15.103406 6.127501,15.04 12.96,15.04 c 6.822268,0 7.814788,0.06391 8.200818,0.528034 0.305546,0.367362 0.471597,1.736706 0.54571,4.500223 0.07103,2.648392 0.230994,4.018016 0.48,4.109699 0.20541,0.07563 2.999184,0.18614 6.208387,0.245578 7.477008,0.138483 7.075053,-0.155529 7.195831,5.263432 0.09549,4.284548 0.109344,4.318903 1.890627,4.690378 0.846797,0.176592 1.486627,1.379523 2.514451,4.727366 0.395741,1.289024 1.342166,1.831104 2.099533,1.202544 0.328761,-0.272848 0.464643,-1.07071 0.464643,-2.728291 0,-3.130381 0.292128,-3.340688 4.631203,-3.334063 1.764839,0.0026 3.368349,0.110694 3.563354,0.239999 0.435843,0.289002 1.581798,2.852615 1.878025,4.201335 0.378416,1.722905 1.084128,1.953766 5.972448,1.953766 2.410445,0 4.610404,0.0874 4.888797,0.194237 C 63.942381,41.006363 64,42.33592 64,52.514237 V 64 H 32 0 Z m 23.162666,1.862858 c 0.394367,-0.620752 0.396337,-1.116995 0.01429,-3.6 -0.243723,-1.584001 -0.446242,-3.483066 -0.450043,-4.220144 -0.0038,-0.737078 -0.219978,-2.258864 -0.480392,-3.38175 -0.260416,-1.122884 -0.615259,-3.657226 -0.788541,-5.631869 -0.173282,-1.974643 -0.394991,-3.719597 -0.492687,-3.877671 -0.0977,-0.158076 -0.322536,-1.816761 -0.499644,-3.685968 C 20.288541,34.773393 19.931316,32.234718 19.671817,31.001101 19.36421,29.538789 19.2,26.894389 19.2,23.403081 c 0,-3.738396 -0.115929,-5.471009 -0.384,-5.73908 -0.539604,-0.539604 -11.172396,-0.539604 -11.712,0 -0.26375,0.26375 -0.384,1.853405 -0.384,5.076323 0,2.580778 -0.133223,5.395978 -0.296053,6.256 -0.162828,0.860023 -0.602451,4.083677 -0.976939,7.163677 -0.374489,3.08 -0.88206,6.896 -1.127938,8.48 -0.245877,1.584 -0.539447,3.744 -0.652378,4.8 -0.11293,1.055999 -0.407556,3.216 -0.654723,4.799999 -0.552389,3.540045 -0.581746,6.622225 -0.06797,7.136001 0.281756,0.281757 2.963694,0.384 10.072623,0.384 h 9.688623 z m 6.213334,0.336 C 29.661955,61.090046 29.76,57.701195 29.76,48.103377 V 35.214756 l 0.72,-0.449309 c 0.396,-0.24712 1.116,-0.54118 1.6,-0.653472 l 0.88,-0.204166 v -3.319668 c 0,-2.731905 -0.08962,-3.354057 -0.506173,-3.513904 -0.278393,-0.10683 -2.636761,-0.194236 -5.240817,-0.194236 -3.827455,0 -4.811312,0.09238 -5.134772,0.482123 -0.428832,0.51671 -0.337471,1.764644 0.468383,6.397877 0.244892,1.408 0.600363,3.928 0.789935,5.6 0.189573,1.672 0.638548,5.2 0.997724,7.84 1.297086,9.533798 1.579977,11.859606 1.582824,13.013334 0.0016,0.645332 0.182896,1.245965 0.402896,1.334736 0.77764,0.313786 2.677095,0.206836 3.056,-0.17207 z m 32,0 c 0.499082,-0.499082 0.547622,-16.952342 0.05274,-17.877037 -0.302956,-0.56608 -0.708832,-0.618963 -4.750406,-0.618963 -5.156342,0 -5.078272,0.04186 -6.26689,-3.359764 -0.412624,-1.180858 -0.895817,-2.292608 -1.07376,-2.470551 -0.361308,-0.361308 -3.324672,-0.443829 -3.868502,-0.107723 -0.197981,0.122357 -0.349184,1.177596 -0.349184,2.436923 0,2.997405 -0.485501,3.501115 -3.374544,3.501115 -2.604874,0 -3.266714,-0.55858 -4.284032,-3.615623 -0.39121,-1.175584 -0.84064,-2.21737 -0.998733,-2.315075 -0.158096,-0.09771 -0.995597,-0.26152 -1.86112,-0.364029 -2.555123,-0.302617 -2.501517,-0.582905 -2.458553,12.854727 0.02026,6.336 0.148864,11.7 0.285792,11.92 0.353446,0.567875 28.379824,0.583366 28.94719,0.016 z M 34.738144,53.048797 C 34.151501,52.211245 34.025251,46.439191 34.571258,45.418963 34.853347,44.891875 35.257085,44.8 37.291258,44.8 c 3.390777,0 3.668742,0.32841 3.668742,4.334544 0,2.816432 -0.06123,3.115776 -0.785456,3.84 -0.672541,0.672545 -1.083946,0.785457 -2.861853,0.785457 -1.782934,0 -2.146806,-0.100515 -2.574547,-0.711204 z m 3.281392,-2.124656 c 0.277578,-0.176032 0.385856,-0.796007 0.32,-1.832221 -0.07839,-1.233389 -0.227376,-1.590463 -0.70119,-1.680528 -0.330912,-0.0629 -0.724708,0.07981 -0.875101,0.317123 -0.405757,0.640269 -0.340288,2.646442 0.100755,3.087485 0.450832,0.450832 0.594032,0.464234 1.155536,0.108141 z m 6.2564,2.020886 C 43.493277,52.162368 43.465306,52.00272 43.57048,48.91879 43.704592,44.986464 43.869901,44.8 47.221978,44.8 c 1.677859,0 2.409971,0.132922 2.707644,0.491594 0.479792,0.578112 0.804602,4.719372 0.49824,6.352425 C 50.099808,53.392694 49.533005,53.76 47.162598,53.76 c -1.793286,0 -2.181209,-0.10952 -2.886662,-0.814973 z M 47.616,50.816 c 0.441043,-0.441043 0.506512,-2.447216 0.100755,-3.087485 -0.150393,-0.237318 -0.544189,-0.380022 -0.875101,-0.317123 -0.473814,0.09006 -0.622803,0.447139 -0.70119,1.680528 -0.06586,1.036214 0.04242,1.656189 0.32,1.832221 0.561504,0.356093 0.704704,0.342691 1.155536,-0.108141 z m 6.353597,2.358803 C 53.546915,52.707747 53.44,51.904838 53.44,49.197661 53.44,44.977053 53.568835,44.8 56.64,44.8 c 3.0812,0 3.2,0.166493 3.2,4.48471 0,3.232343 -0.05042,3.514317 -0.711203,3.977146 -1.053133,0.737645 -4.46496,0.680077 -5.1592,-0.08705 z m 3.290774,-2.431155 c 0.208307,-0.250991 0.333939,-1.078992 0.279184,-1.84 C 57.450625,47.667638 57.35464,47.52 56.64,47.52 c -0.71464,0 -0.810624,0.147638 -0.899555,1.383648 C 55.648865,50.176531 56.049786,51.2 56.64,51.2 c 0.132899,0 0.412067,-0.205357 0.620371,-0.456352 z M 29.19334,22.345341 c -0.534156,-0.534156 -0.496075,-2.338455 0.07256,-3.438081 0.67795,-1.311012 2.280045,-1.947259 4.903274,-1.947259 2.386115,0 2.746678,-0.195214 3.121904,-1.690231 0.328752,-1.309846 1.250028,-1.688658 2.082432,-0.856257 0.74096,0.740962 0.640915,2.058603 -0.260797,3.434789 -0.779159,1.189145 -1.660205,1.502094 -4.706346,1.671699 -2.865067,0.159523 -2.874478,0.162861 -3.157411,1.12 -0.582927,1.971996 -1.242108,2.518852 -2.05562,1.70534 z M 23.6776,17.595517 c -0.521283,-0.974027 -0.03896,-2.784921 1.025168,-3.849054 0.893123,-0.893123 1.093858,-0.946739 3.561847,-0.951363 1.438462,-0.0027 2.783968,-0.112137 2.990014,-0.243206 0.206046,-0.131067 0.477902,-0.668862 0.604124,-1.195099 C 32.157277,10.112205 32.579792,9.6 33.307923,9.6 c 1.274423,0 1.627223,2.100823 0.628003,3.739577 -0.85942,1.409482 -1.531491,1.690757 -4.573214,1.91398 C 26.486231,15.464653 25.92,15.714919 25.92,16.775183 c 0,1.420874 -1.606476,2.008568 -2.2424,0.820334 z M 15.01646,12.076125 C 14.564629,11.084466 15.273768,9.0437837 16.346807,8.2477981 16.939655,7.8080198 17.971443,7.5729987 19.993139,7.4172342 22.937656,7.1903696 22.910487,7.2057008 23.638957,5.36 24.347898,3.5637792 26.141991,4.5880541 25.815108,6.6023974 25.448595,8.860953 23.766423,9.92 20.545487,9.92 18.271914,9.92 17.28,10.418525 17.28,11.561197 c 0,1.273385 -1.737837,1.668722 -2.26354,0.514928 z M 37.473923,11.263383 C 37.012778,10.401727 37.714979,9.5052189 38.73793,9.6496096 39.369034,9.7386906 39.52,9.9453142 39.52,10.72 c 0,0.803459 -0.139987,0.976172 -0.858477,1.059178 -0.588137,0.06795 -0.962121,-0.09448 -1.1876,-0.515795 z M 9.828025,8.4413578 C 9.430294,8.0436272 9.581712,6.0835827 10.085417,5.1095254 10.808429,3.7113731 12.083309,3.2 14.845964,3.2 16.960968,3.2 17.302451,3.116135 17.741855,2.488798 18.015835,2.0976369 18.24,1.3776369 18.24,0.888798 18.24,0.0917735 18.352064,0 19.325309,0 c 0.879019,0 1.121983,0.1461189 1.278252,0.7687425 0.498112,1.9846382 -1.322115,4.62035 -3.254696,4.7128396 -0.477876,0.02287 -1.68965,0.05887 -2.692832,0.08 -2.054782,0.04328 -2.471649,0.3203305 -2.781767,1.8487702 -0.168502,0.8304759 -0.396041,1.0908205 -1.017623,1.1643389 -0.440327,0.05208 -0.903205,-0.00792 -1.028618,-0.1333334 z"
     id="path3831"
     inkscape:connector-curvature="0" />
</svg>
