<?xml version="1.0" encoding="UTF-8" standalone="no"?>
<!-- Created with Inkscape (http://www.inkscape.org/) -->

<svg
   xmlns:dc="http://purl.org/dc/elements/1.1/"
   xmlns:cc="http://creativecommons.org/ns#"
   xmlns:rdf="http://www.w3.org/1999/02/22-rdf-syntax-ns#"
   xmlns:svg="http://www.w3.org/2000/svg"
   xmlns="http://www.w3.org/2000/svg"
   xmlns:sodipodi="http://sodipodi.sourceforge.net/DTD/sodipodi-0.dtd"
   xmlns:inkscape="http://www.inkscape.org/namespaces/inkscape"
   version="1.1"
   id="svg77"
   width="64"
   height="44.936268"
   viewBox="0 0 64 44.936268"
   sodipodi:docname="any-tab-icon-2.svg"
   inkscape:version="0.92.4 (unknown)">
  <path
     style="stroke-width:0.31999999"
     d="m 0,43.996543 c 0,-0.826301 0.125529,-0.95183 1.04,-1.04 L 2.08,42.856268 2.16392,30.907335 C 2.24637,19.167749 2.23656,18.955452 1.60392,18.790013 1.185906,18.680699 0.959996,18.354051 0.959996,17.858945 v -0.762678 h 30.879999 30.880001 v 0.765763 c 0,0.42117 -0.217757,0.849325 -0.483904,0.951455 -0.421997,0.161936 -0.473168,1.711677 -0.4,12.114237 l 0.0839,11.928546 1.04,0.100275 c 0.91447,0.08817 1.04,0.213699 1.04,1.04 v 0.939725 H 31.999995 0 Z m 28.16,-7.540275 v -6.560001 h 3.839999 3.84 v 6.560001 6.56 h 12.16 12.16 v -12.160001 -12.16 h -28.16 H 3.84 v 12.16 12.160001 H 16 28.16 Z M 6.08,31.336267 v -9.44 H 16 25.92 v 9.44 9.440001 H 16 6.08 Z m 17.92,0.16 v -7.68 H 16 8 v 7.68 7.680001 h 8 8 z m -12.95652,5.443847 c -0.595292,-0.657792 -0.584033,-0.681904 1.127696,-2.415162 l 1.728991,-1.750739 0.643733,0.643731 0.643733,0.643735 -1.771429,1.771427 -1.771429,1.77143 z m 6.110211,0.03338 c -0.686336,-0.758393 -0.456077,-1.28215 1.320064,-3.002691 l 1.244419,-1.205466 0.696189,0.741063 0.696189,0.741059 -1.69608,1.675011 c -1.663544,1.64288 -1.706913,1.66304 -2.260781,1.051024 z M 8.96,28.456267 v -3.36 h 5.92 5.92 v 3.36 3.36 H 14.88 8.96 Z m 10.177533,-0.08 -0.09753,-1.52 -4.08,-0.08956 -4.08,-0.08956 v 1.609561 1.60956 h 4.177533 4.177533 z m 18.942466,2.48 v -9.92 h 9.92 9.92 v 9.92 9.920001 h -9.92 -9.92 z m 17.92,0.16 v -8.16 h -8 -8 v 8.16 8.160001 h 8 8 z m -8.96,4.480001 v -2.400001 h 4 4 v 2.400001 2.4 h -4 -4 z m 6.02025,-0.08 c -0.08557,-0.449226 -0.501667,-0.578845 -2.103463,-0.655271 -1.82998,-0.08731 -1.996787,-0.04053 -1.996787,0.56 0,0.593904 0.196995,0.655271 2.103463,0.655271 1.830604,0 2.089625,-0.07264 1.996787,-0.56 z m -11.07625,-1.424 c -0.2112,-0.2112 -0.384,-0.537201 -0.384,-0.724445 0,-0.187248 1.937863,-2.27432 4.306359,-4.637943 4.285939,-4.277117 4.309523,-4.294631 4.973772,-3.693494 l 0.667415,0.604 -4.409488,4.417941 c -2.425216,2.429867 -4.490611,4.417941 -4.58977,4.417941 -0.09916,0 -0.353088,-0.1728 -0.564288,-0.384 z m 9.062531,-3.128785 c -0.584611,-0.645987 -0.578572,-0.676123 0.324253,-1.618471 l 0.919955,-0.960227 0.647111,0.647109 0.647107,0.647108 -0.971363,0.971363 -0.97136,0.971362 z m -9.062531,-2.951216 c -0.573526,-0.573526 -0.471436,-1.022296 0.423904,-1.863426 l 0.807904,-0.758987 0.695303,0.695302 0.695302,0.695302 -0.758985,0.807905 c -0.841133,0.895342 -1.289901,0.997431 -1.863428,0.423904 z M 28.16,24.936267 v -4 h 3.839999 3.84 v 4 4 h -3.84 H 28.16 Z m 6.01527,-0.08 0.09527,-2 H 32.01527 29.76 v 1.866667 c 0,1.026667 0.10209,1.968757 0.226867,2.093534 0.124777,0.124777 1.096777,0.184777 2.16,0.133333 l 1.933132,-0.09353 z M 34.08,37.416268 V 31.976267 H 32 29.92 l -0.08847,5.107156 c -0.04866,2.808934 -0.01452,5.299853 0.07586,5.535376 0.11876,0.309485 0.720042,0.401776 2.168469,0.332845 l 2.00414,-0.09538 z M 0,12.296267 V 8.7762663 h 10.173412 10.173412 l 0.868921,-1.8930327 c 1.171377,-2.551963 3.271825,-4.639395 5.91233,-5.875692 C 29.012409,0.1252874 29.618231,0 31.999999,0 c 2.38177,0 2.987591,0.1252874 4.871927,1.0075416 2.640502,1.236297 4.74095,3.323729 5.912326,5.875692 l 0.868922,1.8930327 h 10.173414 10.173411 v 3.5200007 3.52 h -32 H 0 Z m 62.079999,0 v -1.6 H 52.060495 42.040991 L 41.633775,9.1073924 C 41.227577,7.5224864 39.84479,5.3036838 38.584844,4.2151173 38.21918,3.8991899 37.199999,3.2502258 36.319999,2.7729745 c -1.383088,-0.7500922 -1.968748,-0.8677298 -4.32,-0.8677298 -2.330406,0 -2.954104,0.1228666 -4.354431,0.8578102 -2.348612,1.2326381 -4.495341,3.745612 -5.174667,6.0574972 L 21.92,10.695379 l -10,4.44e-4 -10,4.44e-4 v 1.6 1.6 H 31.999999 62.08 Z M 30.08,10.856267 c 0,-0.764445 0.08533,-0.800001 1.919999,-0.800001 1.834666,0 1.92,0.03556 1.92,0.800001 0,0.764444 -0.08533,0.8 -1.92,0.8 -1.834666,0 -1.919999,-0.03556 -1.919999,-0.8 z M 27.2,6.8562662 v -0.96 h 4.799999 4.8 v 0.96 0.9600001 h -4.8 H 27.2 Z"
     id="path3852"
     inkscape:connector-curvature="0" />
</svg>
