<?xml version="1.0" encoding="UTF-8" standalone="no"?>
<!-- Created with Inkscape (http://www.inkscape.org/) -->

<svg
   xmlns:dc="http://purl.org/dc/elements/1.1/"
   xmlns:cc="http://creativecommons.org/ns#"
   xmlns:rdf="http://www.w3.org/1999/02/22-rdf-syntax-ns#"
   xmlns:svg="http://www.w3.org/2000/svg"
   xmlns="http://www.w3.org/2000/svg"
   xmlns:sodipodi="http://sodipodi.sourceforge.net/DTD/sodipodi-0.dtd"
   xmlns:inkscape="http://www.inkscape.org/namespaces/inkscape"
   version="1.1"
   id="svg97"
   width="63.974884"
   height="63.986065"
   viewBox="0 0 63.974884 63.986065"
   sodipodi:docname="any-tab-icon-4.svg"
   inkscape:version="0.92.4 (unknown)">
  <path
     style="stroke-width:0.31999999"
     d="m 0.4170615,63.558648 c -0.556082,-0.556083 -0.556082,-50.835917 0,-51.391999 0.2112,-0.2112 0.708329,-0.384 1.104731,-0.384 0.6606,0 0.728678,-0.166858 0.816,-1.9999995 l 0.09527,-2.0000001 2,-0.095269 2,-0.09527 V 4.126562 c 0,-2.5389634 0.11687,-3.56254113 0.437108,-3.82831533 0.313901,-0.2605148 4.1698545,-0.3392074 13.6800005,-0.2791823 l 13.242891,0.083585 0.16,3.67999983 0.159999,3.6800001 2.08,0.16 2.08,0.16 0.09476,1.9801681 c 0.09027,1.8865266 0.13567,1.9848896 0.96,2.0799996 l 0.865244,0.09983 0.16,7.36 0.16,7.36 h 4.8 4.8 l 0.09073,-3.430645 c 0.08671,-3.278691 0.05184,-3.489407 -0.78721,-4.757303 -1.123847,-1.698241 -1.408695,-4.747932 -0.602215,-6.447467 0.606189,-1.277442 1.645354,-2.4845826 2.138854,-2.4845826 0.184378,0 1.262071,0.8899976 2.394877,1.9777726 l 2.059645,1.977773 1.275779,-1.245763 1.275776,-1.245764 0.70487,0.70487 0.704871,0.70487 -1.245763,1.275777 -1.245763,1.275778 1.977772,2.059646 c 1.087776,1.132805 1.977773,2.210282 1.977773,2.394392 0,0.558669 -1.68767,1.939948 -2.831488,2.317442 -1.098313,0.362476 -4.226969,0.248465 -5.262089,-0.191755 -0.529146,-0.225036 -0.56633,-0.03636 -0.48,2.435514 l 0.09358,2.679447 5.76,0.16 5.76,0.16 0.08268,18.043977 c 0.05985,13.060147 -0.01728,18.164409 -0.279184,18.48 -0.501213,0.603926 -62.6564825,0.65504 -63.2594995,0.05202 z M 12.833061,57.85237 c 0,-7.041053 0.608272,-7.666672 7.455891,-7.668525 4.744611,-0.0013 5.898442,0.28863 6.694622,1.682115 0.256014,0.44808 0.469454,2.455728 0.569487,5.356688 l 0.16,4.64 5.359999,0.08774 5.36,0.08774 V 37.867743 13.697364 l -18.159999,0.08264 -18.1599995,0.08264 -0.08276,23.679999 c -0.04552,13.024 -0.01404,23.86 0.06996,24.08 0.113664,0.297709 1.50551,0.4 5.442761,0.4 H 12.833065 Z M 4.6492165,57.115899 c -0.09007,-0.23471 -0.121548,-1.63871 -0.06996,-3.12 l 0.0938,-2.693251 2.233306,-0.09629 c 3.7392775,-0.161227 3.6866945,-0.205556 3.6866945,3.108149 0,3.316871 0.09335,3.228141 -3.3962155,3.228141 -1.691591,0 -2.431427,-0.123929 -2.54763,-0.426749 z m 3.863845,-2.773251 c 0,-1.029686 -0.08386,-1.128086 -1.04,-1.220275 -1.021522,-0.09849 -1.04,-0.07681 -1.04,1.220275 0,1.297088 0.01848,1.318768 1.04,1.220275 0.956138,-0.09219 1.04,-0.190588 1.04,-1.220275 z m 21.7361535,2.773251 c -0.09007,-0.23471 -0.121547,-1.63871 -0.06996,-3.12 l 0.0938,-2.693251 2.233305,-0.09629 c 3.739277,-0.161226 3.686694,-0.205555 3.686694,3.10815 0,3.316871 0.09335,3.228141 -3.396214,3.228141 -1.691592,0 -2.431428,-0.123929 -2.547631,-0.426749 z m 3.863845,-2.773251 c 0,-1.029686 -0.08386,-1.128086 -1.04,-1.220275 -1.021523,-0.09849 -1.04,-0.07681 -1.04,1.220275 0,1.297088 0.01846,1.318768 1.04,1.220275 0.956138,-0.09219 1.04,-0.190588 1.04,-1.220275 z M 4.7379075,45.500827 c -0.123665,-0.123664 -0.224846,-1.502249 -0.224846,-3.063519 v -2.838676 l 2.96,0.09201 2.9599995,0.09201 v 2.88 2.88 l -2.7351535,0.09151 c -1.504335,0.05033 -2.836335,-0.0097 -2.96,-0.133335 z m 3.935154,-2.838179 c 0,-1.066665 -0.05333,-1.12 -1.12,-1.12 -1.066667,0 -1.12,0.05334 -1.12,1.12 0,1.066666 0.05333,1.12 1.12,1.12 1.066667,0 1.12,-0.05333 1.12,-1.12 z m 8.8648465,2.838179 c -0.123666,-0.123664 -0.224846,-1.502249 -0.224846,-3.063519 v -2.838676 l 2.959999,0.09201 2.96,0.09201 v 2.88 2.88 l -2.735154,0.09151 c -1.504335,0.05033 -2.836335,-0.0097 -2.959999,-0.133335 z m 3.935153,-2.838179 c 0,-1.066665 -0.05333,-1.12 -1.12,-1.12 -1.066667,0 -1.12,0.05334 -1.12,1.12 0,1.066666 0.05333,1.12 1.12,1.12 1.066666,0 1.12,-0.05333 1.12,-1.12 z m 8.864846,2.838179 c -0.123666,-0.123664 -0.224846,-1.502249 -0.224846,-3.063519 v -2.838676 l 2.959999,0.09201 2.96,0.09201 v 2.88 2.88 l -2.735155,0.09151 c -1.504332,0.05033 -2.836333,-0.0097 -2.959998,-0.133335 z m 3.935153,-2.838179 c 0,-1.066665 -0.05333,-1.12 -1.119999,-1.12 -1.066665,0 -1.12,0.05334 -1.12,1.12 0,1.066666 0.05333,1.12 1.12,1.12 1.066665,0 1.119999,-0.05333 1.119999,-1.12 z m -29.6921675,-11.74783 0.09217,-2.972169 h 2.88 2.8799995 v 2.88 2.879999 l -2.9721685,0.09217 -2.972169,0.09217 z m 4.092169,-0.09217 c 0,-1.066667 -0.05333,-1.12 -1.12,-1.12 -1.066667,0 -1.12,0.05333 -1.12,1.12 0,1.066665 0.05333,1.119999 1.12,1.119999 1.066667,0 1.12,-0.05333 1.12,-1.119999 z m 8.7078305,0.09217 0.09217,-2.972169 h 2.88 2.88 v 2.88 2.879999 l -2.97217,0.09217 -2.972169,0.09217 z m 4.092169,-0.09217 c 0,-1.066667 -0.05333,-1.12 -1.12,-1.12 -1.066667,0 -1.12,0.05333 -1.12,1.12 0,1.066665 0.05333,1.119999 1.12,1.119999 1.066666,0 1.12,-0.05333 1.12,-1.119999 z m 8.707831,0.09217 0.09217,-2.97217 h 2.879999 2.88 v 2.88 2.879999 l -2.972169,0.09217 -2.972169,0.09217 z m 4.092168,-0.09217 c 0,-1.066667 -0.05333,-1.12 -1.119999,-1.12 -1.066665,0 -1.12,0.05333 -1.12,1.12 0,1.066665 0.05333,1.119999 1.12,1.119999 1.066665,0 1.119999,-0.05333 1.119999,-1.119999 z M 4.6492165,21.915899 c -0.09007,-0.234712 -0.121548,-1.638712 -0.06996,-3.12 l 0.0938,-2.693251 2.233307,-0.09629 c 3.7392765,-0.161224 3.6866935,-0.205556 3.6866935,3.108152 0,3.316869 0.09335,3.22814 -3.3962155,3.22814 -1.691591,0 -2.431427,-0.123929 -2.54763,-0.426749 z m 3.863845,-2.773251 c 0,-1.029688 -0.08386,-1.128086 -1.04,-1.220275 -1.021522,-0.09849 -1.04,-0.07681 -1.04,1.220275 0,1.297086 0.01848,1.318767 1.04,1.220274 0.956138,-0.09219 1.04,-0.190587 1.04,-1.220274 z m 8.9361545,2.773251 c -0.09007,-0.234712 -0.121548,-1.638712 -0.06996,-3.12 l 0.0938,-2.693251 2.233306,-0.09629 c 3.739278,-0.161224 3.686694,-0.205556 3.686694,3.108152 0,3.316869 0.09335,3.22814 -3.396214,3.22814 -1.691592,0 -2.431428,-0.123929 -2.54763,-0.426749 z m 3.863845,-2.773251 c 0,-1.029688 -0.08386,-1.128086 -1.04,-1.220275 -1.021522,-0.09849 -1.04,-0.07681 -1.04,1.220275 0,1.297086 0.01848,1.318767 1.04,1.220274 0.956138,-0.09219 1.04,-0.190587 1.04,-1.220274 z m 8.936154,2.773251 c -0.09007,-0.234712 -0.121547,-1.638712 -0.06996,-3.12 l 0.09381,-2.693251 2.233305,-0.09629 c 3.739277,-0.161224 3.686694,-0.205556 3.686694,3.108152 0,3.316869 0.09335,3.22814 -3.396214,3.22814 -1.691592,0 -2.431428,-0.123929 -2.547631,-0.426749 z m 3.863845,-2.773251 c 0,-1.029688 -0.08386,-1.128086 -1.04,-1.220275 -1.021523,-0.09849 -1.04,-0.07681 -1.04,1.220275 0,1.297086 0.01846,1.318767 1.04,1.220274 0.956138,-0.09219 1.04,-0.190587 1.04,-1.220274 z M 19.233062,57.062647 v -4.96 h -1.404549 c -0.905264,0 -1.673097,0.217207 -2.16,0.611031 -0.706345,0.571312 -0.762421,0.863712 -0.862669,4.498291 -0.05897,2.137993 -0.02749,4.09503 0.06996,4.348969 0.129345,0.337066 0.741398,0.461709 2.267218,0.461709 h 2.09004 z m 6.4,0.64 c 0,-3.930262 -0.05926,-4.379257 -0.656846,-4.976845 -0.513127,-0.513126 -0.985736,-0.635654 -2.159999,-0.56 l -1.503155,0.09685 -0.08945,4.464589 c -0.0492,2.455526 -0.01772,4.651526 0.06996,4.88 0.108165,0.281875 0.831265,0.415411 2.24945,0.415411 h 2.09004 z m 20.490959,0.48 c 0.192919,-4.152733 0.339459,-4.633817 1.611927,-5.291837 1.21976,-0.630761 5.774467,-0.630761 6.994227,0 1.272467,0.65802 1.419008,1.139104 1.611926,5.291837 l 0.17096,3.68 h 2.72 2.72 l 0.08288,-16.56 0.08288,-16.559999 h -10.88288 -10.88288 v 16.426665 c 0,9.034669 0.101351,16.528016 0.225223,16.651888 0.123869,0.123872 1.383869,0.183872 2.8,0.133334 l 2.574777,-0.09189 z M 47.29574,49.65866 c -0.122474,-0.122474 -0.222679,-1.911274 -0.222679,-3.97511 0,-3.126528 0.08443,-3.784829 0.506173,-3.946666 0.753222,-0.28904 6.949085,-0.225517 7.424454,0.07612 0.305351,0.193754 0.387392,1.238516 0.32,4.075101 l -0.09063,3.814547 -3.857321,0.08935 c -2.121527,0.04914 -3.957527,-0.01085 -4.08,-0.133334 z m 6.111942,-3.876013 -0.09462,-2.16 h -2.08 -2.08 l -0.09462,2.16 -0.09462,2.16 h 2.269241 2.269242 z m -6.19191,-6.889667 c -0.09064,-0.236205 -0.123831,-2.076659 -0.07376,-4.089897 l 0.09105,-3.660435 h 4 4 v 3.999999 4 l -3.926243,0.0899 c -3.053293,0.06991 -3.962886,-0.0056 -4.091046,-0.339567 z m 6.257289,-3.750333 v -2.24 h -2.24 -2.24 v 2.24 2.24 h 2.24 2.24 z m 0.96,23.542858 c 0,-4.159175 -0.135344,-4.342858 -3.2,-4.342858 -3.064656,0 -3.2,0.183683 -3.2,4.342858 v 3.337142 h 3.2 3.2 z m 3.079117,-38.91773 0.880784,-0.334873 -3.637869,-3.648217 c -2.000829,-2.006519 -3.750227,-3.578775 -3.887555,-3.493902 -0.137328,0.08487 -0.343293,0.653264 -0.457696,1.26309 -0.762067,4.062171 3.334608,7.64639 7.102336,6.213902 z M 36.453337,10.582648 36.553612,9.5426485 H 20.373336 4.1930615 v 1.1229595 1.122959 l 16.0800005,-0.08296 16.079999,-0.08296 z M 32.033061,4.7387057 V 1.8547631 l -11.759999,0.083943 -11.7600005,0.083943 -0.09503,2.3700526 c -0.05227,1.3035294 -0.02078,2.5635294 0.06996,2.8000001 C 8.6219425,7.5417744 10.851918,7.622649 20.34302,7.622649 h 11.690043 z"
     id="path3810"
     inkscape:connector-curvature="0" />
</svg>
