<?xml version="1.0" encoding="UTF-8" standalone="no"?>
<!-- Created with Inkscape (http://www.inkscape.org/) -->

<svg
   xmlns:dc="http://purl.org/dc/elements/1.1/"
   xmlns:cc="http://creativecommons.org/ns#"
   xmlns:rdf="http://www.w3.org/1999/02/22-rdf-syntax-ns#"
   xmlns:svg="http://www.w3.org/2000/svg"
   xmlns="http://www.w3.org/2000/svg"
   xmlns:sodipodi="http://sodipodi.sourceforge.net/DTD/sodipodi-0.dtd"
   xmlns:inkscape="http://www.inkscape.org/namespaces/inkscape"
   version="1.1"
   id="svg61"
   width="47.999996"
   height="78.400002"
   viewBox="0 0 47.999996 78.400002"
   sodipodi:docname="btn-calc-icon.svg"
   inkscape:version="0.92.4 (unknown)">
  <path
     style="stroke-width:0.31999999"
     d="m 2.229354,78.000002 c -0.01657,-0.622573 -1.155028,-1.84 -1.720648,-1.84 C 0.047575,76.160002 0,73.496504 0,47.680001 0,20.210807 0.02095,19.2 0.590404,19.2 0.915126,19.2 1.454786,18.897258 1.789648,18.527239 3.99448,16.090928 8.32,16.693196 8.32,19.436499 c 0,0.443078 -0.442561,1.579113 -0.983469,2.524521 -1.117795,1.953702 -1.112116,2.650251 0.0263,3.226226 1.153698,0.583705 32.43929,0.58373 33.597165,2.7e-5 1.150292,-0.579881 1.157722,-1.623119 0.02413,-3.389655 -1.403091,-2.186529 -1.305104,-3.529725 0.318749,-4.369453 1.32105,-0.68314 2.828285,-0.568403 4.409776,0.33569 0.765972,0.43788 1.593972,0.796145 1.840007,0.796145 0.379837,0 0.447338,4.390707 0.447338,29.097745 V 76.75549 l -0.72,0.102256 c -0.462707,0.06571 -0.756541,0.359549 -0.822256,0.822256 l -0.102256,0.72 H 24.29774 c -17.427184,0 -22.059979,-0.08397 -22.06839,-0.4 z m 10.106369,-5.332765 c 1.877701,-1.077027 2.024263,-1.236598 3.175166,-3.457011 0.76714,-1.480026 0.824117,-1.795146 0.501387,-2.773028 -0.553477,-1.677052 -2.688811,-3.90656 -4.348681,-4.54047 -1.96439,-0.750208 -3.516017,-0.27105 -5.577474,1.722374 -3.114492,3.011706 -2.426615,6.301373 1.896529,9.069853 1.776965,1.137946 2.336167,1.135156 4.353073,-0.02173 z M 8.32,68.800002 c -1.334455,-1.334455 -0.429102,-3.52 1.458145,-3.52 2.102304,0 3.134758,2.153632 1.681515,3.507533 -0.891571,0.830627 -2.315846,0.836281 -3.13966,0.01247 z m 18.155884,3.796582 c 1.422245,-0.813725 1.897848,-1.312803 2.515827,-2.64 0.912193,-1.959065 0.95215,-3.12087 0.166797,-4.849821 -0.697765,-1.536125 -2.137947,-2.825129 -3.751411,-3.357619 -2.339888,-0.772234 -5.347495,0.976531 -6.394495,3.718064 -1.10146,2.884131 0.366582,6.075511 3.507499,7.62496 1.426655,0.703786 1.980862,0.634352 3.955783,-0.495584 z m -3.897739,-3.547785 c -1.103812,-1.575911 -0.265537,-4.09314 1.36,-4.083898 1.053356,0.006 1.44909,0.253158 1.96116,1.224905 0.450329,0.854586 0.215511,2.178689 -0.533833,3.010196 -0.716804,0.795401 -2.179892,0.716032 -2.787327,-0.151203 z m 17.759205,3.640156 c 2.108266,-1.350102 3.069783,-2.462451 3.456669,-3.998915 0.525904,-2.08856 0.0019,-3.61311 -1.808323,-5.259862 C 39.95328,61.581163 38.548115,61.174277 36.670877,61.891202 34.399786,62.758539 32.32,65.387752 32.32,67.391471 c 0,1.328748 1.460259,3.786512 2.77432,4.669459 2.763968,1.857177 3.23545,1.913654 5.24303,0.628025 z M 36.8,68.800002 c -1.3176,-1.3176 -0.341501,-3.626666 1.533082,-3.626666 0.546048,0 1.216489,0.185632 1.489868,0.412515 0.65168,0.540848 0.647943,2.697543 -0.0058,3.351293 C 39.118275,69.636011 37.565427,69.565429 36.8,68.800002 Z M 12.32,58.275189 c 1.509441,-0.696653 2.405349,-1.62032 3.353299,-3.457197 l 0.692566,-1.34201 -0.679325,-1.53799 c -0.748417,-1.69442 -2.255367,-3.425751 -3.590649,-4.125293 -1.94839,-1.020743 -4.199345,-0.345261 -6.236002,1.871337 -2.238083,2.435821 -2.191945,5.255709 0.119194,7.284916 2.227656,1.955907 4.098312,2.341264 6.340917,1.306237 z M 8.380339,54.707534 C 7.995153,54.34868 7.68,53.711131 7.68,53.290763 c 0,-0.838672 1.341465,-2.090762 2.24,-2.090762 0.891594,0 2.24,1.252093 2.24,2.08 0,0.88449 -1.369558,2.08 -2.382815,2.08 -0.383078,0 -1.011659,-0.293609 -1.396846,-0.652467 z m 17.789939,3.675491 c 1.713551,-0.715792 2.824362,-1.912355 3.277384,-3.53039 1.221804,-4.363856 -3.575496,-8.988829 -7.303553,-7.041203 -2.573359,1.344387 -3.950885,4.337632 -3.236162,7.031901 0.430617,1.623283 1.341093,2.660656 3.012053,3.431856 1.573598,0.726262 2.701321,0.754873 4.250278,0.107836 z m -3.437812,-3.403363 c -0.948971,-1.018601 -0.860696,-2.609414 0.190689,-3.436435 1.100407,-0.865581 1.572644,-0.836519 2.567148,0.157987 0.660094,0.660093 0.78206,1.016973 0.621654,1.819002 -0.415348,2.076739 -2.118971,2.812454 -3.379491,1.459446 z m 17.752273,3.227575 C 43.245898,56.750581 44.3832,54.728485 43.827389,52.264088 43.149056,49.256449 39.645846,46.817304 36.969302,47.489073 35.096755,47.959051 32.32,51.38668 32.32,53.228174 c 0,1.946845 1.690742,4.210701 3.84,5.141651 1.554275,0.673233 2.831411,0.625217 4.324739,-0.162588 z m -3.62896,-3.58786 c -0.887005,-0.944176 -0.885366,-1.937817 0.0045,-2.766908 0.988186,-0.920637 2.30568,-0.840023 3.116435,0.190688 0.364775,0.463734 0.663226,1.020313 0.663226,1.236844 0,0.216532 -0.298451,0.773111 -0.663226,1.236845 -0.841449,1.069731 -2.171315,1.113418 -3.120995,0.102531 z m 3.762247,-12.053072 c 1.632822,-0.468288 2.799513,-1.765296 3.240147,-3.602058 0.48783,-2.03351 0.240349,-7.370933 -0.413091,-8.90912 C 42.563942,27.980948 42.744214,28.000001 24,28.000001 c -16.34583,0 -16.830109,0.01769 -17.913757,0.65429 -0.785425,0.461407 -1.226266,1.027417 -1.495408,1.92 -0.48352,1.603553 -0.536464,7.272433 -0.08317,8.904977 0.400159,1.441165 1.57852,2.648157 2.983491,3.055981 1.37279,0.39848 31.746441,0.426957 33.126867,0.03104 z M 8.756506,38.345732 C 7.876973,37.919854 7.36,36.767438 7.36,35.232695 c 0,-1.670406 0.57508,-3.175433 1.377431,-3.604838 0.928769,-0.497062 28.843567,-0.621595 30.346217,-0.13538 0.847597,0.274258 1.163997,0.617377 1.50079,1.627524 0.625863,1.877158 0.311312,3.973053 -0.730803,4.86944 l -0.849325,0.73056 -14.782154,-0.02166 C 14.74005,38.684451 9.194937,38.558017 8.756506,38.345726 Z m 4.224382,-16.883929 c -0.524263,-0.547212 -1.010154,-1.51405 -1.165932,-2.32 C 11.37706,16.876267 11.458479,2.7470406 11.917913,1.2749604 L 12.315826,0 H 24.197913 36.08 l 0.196835,0.9841764 C 36.60153,2.6076422 36.88305,15.9207 36.64057,18.184963 c -0.192772,1.80005 -0.377693,2.256162 -1.280932,3.1594 L 34.304,22.400001 H 24.091869 13.879738 Z m 6.67828,-2.893882 C 21.346671,17.926334 20.412856,15.04 18.517781,15.04 c -1.808618,0 -2.511282,2.623963 -0.917781,3.427273 0.971,0.489497 1.028966,0.49233 2.059168,0.100648 z M 30.72,18.467868 c 1.134312,-0.57098 1.199941,-1.811051 0.148103,-2.798415 -0.682074,-0.640265 -1.141031,-0.780221 -2.42866,-0.740602 -2.331133,0.07173 -3.005735,0.319265 -3.434476,1.260248 -0.48101,1.055702 -0.198731,2.007643 0.703174,2.37134 1.04257,0.42042 4.105125,0.363854 5.011859,-0.09257 z M 20.08,12.546527 c 0.944231,-1.20118 0.02524,-2.9465271 -1.551451,-2.9465271 -0.943788,0 -1.888549,0.9844951 -1.888549,1.9679771 0,0.300065 0.382627,0.846546 0.850281,1.214403 0.923029,0.726055 1.90379,0.636734 2.589719,-0.235853 z m 10.834419,0.08815 c 0.587391,-0.587392 0.747906,-0.998731 0.593142,-1.52 C 31.158415,9.9386949 30.409869,9.5999999 28.16,9.5999999 c -2.610259,0 -3.289818,0.4163161 -3.145188,1.9268281 0.131935,1.37792 1.065457,1.901957 3.399734,1.908455 1.387514,0.0039 1.84046,-0.141198 2.499873,-0.80061 z M 20.181037,6.7087413 C 20.872915,6.3384597 21.003878,5.1318785 20.416,4.5440001 19.944767,4.0727668 17.782214,4.0399646 16.938963,4.4912591 16.598533,4.6734514 16.32,5.097286 16.32,5.4331138 c 0,1.2763393 2.38647,2.0647924 3.861037,1.2756275 z M 31.288798,6.5418549 c 0.87589,-0.6134963 0.920591,-1.6072759 0.09224,-2.0505959 -1.027612,-0.5499613 -5.965832,-0.4207501 -6.55818,0.1715984 -0.658708,0.6587082 -0.634487,0.965513 0.137143,1.7371428 0.530282,0.5302816 1.066667,0.64 3.128798,0.64 1.734647,0 2.704305,-0.1509469 3.2,-0.4981453 z m 9.324437,0.2208198 C 40.048266,6.3051896 39.856768,5.8331992 39.863251,4.9141624 c 0.01309,-1.8556583 0.386477,-2.9340371 1.159085,-3.3475242 0.591648,-0.3166396 0.783155,-0.2626984 1.290128,0.3633845 0.867114,1.0708432 0.691446,4.3674165 -0.266499,5.0011157 -0.592701,0.3920803 -0.765591,0.3717514 -1.43273,-0.1684637 z"
     id="path71"
     inkscape:connector-curvature="0" />
</svg>
