<?xml version="1.0" encoding="UTF-8" standalone="no"?>
<!-- Created with Inkscape (http://www.inkscape.org/) -->

<svg
   xmlns:dc="http://purl.org/dc/elements/1.1/"
   xmlns:cc="http://creativecommons.org/ns#"
   xmlns:rdf="http://www.w3.org/1999/02/22-rdf-syntax-ns#"
   xmlns:svg="http://www.w3.org/2000/svg"
   xmlns="http://www.w3.org/2000/svg"
   xmlns:sodipodi="http://sodipodi.sourceforge.net/DTD/sodipodi-0.dtd"
   xmlns:inkscape="http://www.inkscape.org/namespaces/inkscape"
   version="1.1"
   id="svg151"
   width="38.418949"
   height="38.525368"
   viewBox="0 0 38.41895 38.525368"
   sodipodi:docname="intro-nav-icon-1.svg"
   inkscape:version="0.92.4 (unknown)">
  <path
     style="stroke-width:0.32000002"
     d="M 2.6012746,37.964897 C 0.94384663,37.119751 0.24971463,35.956551 0.12704163,33.818663 c -0.05849,-1.019299 -0.02283,-1.67327 0.07924,-1.45327 0.10207,0.22 0.374175,0.4 0.604678,0.4 0.55708797,0 0.74736297,-0.61912 0.49173197,-1.6 -0.126007,-0.483502 -0.42127097,-0.782417 -0.74632697,-0.755556 -0.491858,0.04064 -0.537835,-0.710262 -0.537835,-8.784 0,-6.767351 0.08787,-8.740574 0.376386,-8.452059 0.261688,0.261688 0.497761,0.275653 0.77468597,0.04583 0.314157,-0.260728 0.285345,-0.529099 -0.136386,-1.270363 -0.29407697,-0.516892 -0.64268597,-0.940713 -0.77468597,-0.941826 -0.504233,-0.0043 -0.218259,-3.0438396 0.40465,-4.3009926 C 1.8797906,4.2510679 2.2191686,4.1461485 9.5294736,3.9653946 l 6.4709454,-0.16 L 17.922112,1.9026973 19.843806,0 20.591793,0.70269722 c 0.923102,0.86720898 1.249348,0.87750468 1.986738,0.0626972 0.318556,-0.35200001 0.741382,-0.64000003 0.939613,-0.64000003 0.198232,0 1.215406,0.86400004 2.260387,1.92000011 l 1.899966,1.9200001 h 5.370019 5.370016 V 9.7253949 15.485396 H 37.11507 c -1.070308,0 -1.283629,0.100169 -1.192567,0.56 0.08185,0.41334 0.423277,0.56 1.303674,0.56 1.165021,0 1.192771,0.02792 1.192566,1.2 l -2.11e-4,1.2 h -4.85897 c -4.232933,0 -5.032298,0.08391 -6.204277,0.651253 -4.496979,2.176951 -4.296418,8.805761 0.330008,10.907255 1.064672,0.483614 2.127448,0.588679 6.013239,0.594465 l 4.72,0.007 2.11e-4,1.84 2.08e-4,1.84 h -1.200208 c -0.85352,0 -1.200211,0.138653 -1.200211,0.48 0,0.341347 0.346691,0.48 1.200211,0.48 1.198711,0 1.200208,0.0016 1.2,1.36 l -2.11e-4,1.36 -17.360001,-6.4e-4 c -15.8951544,-3.2e-4 -17.4525884,-0.04771 -18.4572544,-0.56 z m 4.937253,-2.639504 c 0,-0.563082 -1.675079,-0.852922 -2.155101,-0.372899 -0.538051,0.538051 0.08327,1.054006 1.145133,0.950934 0.640845,-0.0622 1.009968,-0.273466 1.009968,-0.578035 z m 3.8400014,0 c 0,-0.563082 -1.6750804,-0.852922 -2.1551024,-0.372899 -0.538051,0.538051 0.08327,1.054006 1.1451334,0.950934 0.640845,-0.0622 1.009969,-0.273466 1.009969,-0.578035 z m 3.84,0 c 0,-0.563082 -1.675079,-0.852922 -2.155101,-0.372899 -0.538051,0.538051 0.08327,1.054006 1.145132,0.950934 0.640846,-0.0622 1.009969,-0.273466 1.009969,-0.578035 z m 3.84,0 c 0,-0.563082 -1.675079,-0.852922 -2.155101,-0.372899 -0.538051,0.538051 0.08327,1.054006 1.145133,0.950934 0.640845,-0.0622 1.009968,-0.273466 1.009968,-0.578035 z m 3.84,0 c 0,-0.563082 -1.675079,-0.852922 -2.155101,-0.372899 -0.538051,0.538051 0.08327,1.054006 1.145133,0.950934 0.640845,-0.0622 1.009968,-0.273466 1.009968,-0.578035 z m 3.84,0 c 0,-0.563082 -1.675078,-0.852922 -2.155101,-0.372899 -0.538051,0.538051 0.08327,1.054006 1.145133,0.950934 0.640845,-0.0622 1.009968,-0.273466 1.009968,-0.578035 z m 3.840001,0 c 0,-0.563082 -1.675079,-0.852922 -2.155101,-0.372899 -0.538052,0.538051 0.08327,1.054006 1.145132,0.950934 0.640845,-0.0622 1.009969,-0.273466 1.009969,-0.578035 z m 3.84,0 c 0,-0.563082 -1.675079,-0.852922 -2.155101,-0.372899 -0.538051,0.538051 0.08327,1.054006 1.145133,0.950934 0.640845,-0.0622 1.009968,-0.273466 1.009968,-0.578035 z M 3.7487066,35.15002 c 0.215793,-0.562349 -0.712828,-1.39887 -1.570179,-1.414451 -0.788481,-0.01434 -0.696376,0.77663 0.16,1.374009 0.921868,0.643063 1.176134,0.650352 1.410179,0.04044 z m 3.890664,-19.104628 c 0.08696,-0.459043 -0.128905,-0.56 -1.197379,-0.56 -1.240735,0 -1.697308,0.459489 -1.074965,1.081832 0.447905,0.447905 2.163264,0.05398 2.272344,-0.521832 z m 3.8400014,0 c 0.08696,-0.459043 -0.128906,-0.56 -1.19738,-0.56 -1.2407354,0 -1.6973084,0.459489 -1.0749654,1.081832 0.447905,0.447905 2.1632654,0.05398 2.2723454,-0.521832 z m 3.84,0 c 0.08696,-0.459043 -0.128906,-0.56 -1.19738,-0.56 -1.240735,0 -1.697307,0.459489 -1.074964,1.081832 0.447905,0.447905 2.163264,0.05398 2.272344,-0.521832 z m 3.84,0 c 0.08696,-0.459043 -0.128905,-0.56 -1.197379,-0.56 -1.240735,0 -1.697308,0.459489 -1.074965,1.081832 0.447905,0.447905 2.163264,0.05398 2.272344,-0.521832 z m 3.84,0 c 0.08696,-0.459043 -0.128905,-0.56 -1.197379,-0.56 -1.240735,0 -1.697308,0.459489 -1.074965,1.081832 0.447905,0.447905 2.163264,0.05398 2.272344,-0.521832 z m 3.840001,0 c 0.08696,-0.459043 -0.128906,-0.56 -1.19738,-0.56 -1.240735,0 -1.697308,0.459489 -1.074965,1.081832 0.447905,0.447905 2.163265,0.05398 2.272345,-0.521832 z m 3.84,0 c 0.08696,-0.459043 -0.128906,-0.56 -1.19738,-0.56 -1.240735,0 -1.697307,0.459489 -1.074964,1.081832 0.447904,0.447905 2.163264,0.05398 2.272344,-0.521832 z m 3.839998,0 c 0.08696,-0.459043 -0.128905,-0.56 -1.197379,-0.56 -1.240733,0 -1.697306,0.459489 -1.074963,1.081832 0.447904,0.447905 2.163264,0.05398 2.272342,-0.521832 z M 3.8585276,15.682195 c 0,-0.549965 -1.505259,-1.573128 -1.929039,-1.311217 -0.493904,0.305249 -0.36171,1.053054 0.249039,1.408782 0.805791,0.46933 1.68,0.418561 1.68,-0.09757 z m 5.557924,-5.274479 C 11.85462,7.9551633 11.897882,7.8846487 11.088945,7.6816186 10.632216,7.5669869 10.258529,7.2490647 10.258529,6.9751248 c 0,-0.3904169 0.312617,-0.478848 1.446338,-0.4091299 1.139424,0.070069 1.59589,-0.060611 2.151111,-0.6158308 L 14.560751,5.2453907 H 9.1983806 c -5.898227,0 -6.511667,0.1637613 -7.456314,1.9905073 -0.367903,0.7114461 -0.395971,1.0412327 -0.117206,1.3771239 0.201598,0.2429114 0.270704,0.7436176 0.153568,1.112681 -0.468354,1.4756541 1.650813,3.1609821 4.007606,3.1871631 0.989129,0.01099 1.434688,-0.296466 3.630417,-2.50515 z M 2.7092506,7.7580199 c -0.295488,-0.4781101 0.739265,-1.2326292 1.690438,-1.2326292 0.694981,0 1.04832,0.7486068 0.498839,1.0568721 -0.719267,0.4035171 -1.985679,0.5051859 -2.189277,0.1757571 z m 4.109277,-0.164559 c -0.22,-0.088772 -0.4,-0.3654036 -0.4,-0.6147367 0,-0.3155555 0.38902,-0.4533335 1.28,-0.4533335 0.880751,0 1.28,0.1390394 1.28,0.4457636 0,0.6830451 -1.172389,1.0208163 -2.16,0.6223066 z M 15.642526,7.7014705 C 20.28239,3.0552062 20.801665,2.4297595 20.338498,2.045365 19.879245,1.6642182 19.177726,2.2523704 14.398138,7.0257552 11.417353,10.002672 8.9785276,12.54792 8.9785276,12.681861 c 0,0.133942 0.325637,0.243531 0.723637,0.243531 0.5089264,0 2.2715044,-1.550002 5.9403614,-5.2239215 z m 3.912351,1.3039204 3.807733,-3.9200002 3.951313,3.9386878 3.951314,3.9386885 1.662925,-0.09869 1.662925,-0.09869 -5.529661,-5.5200483 -5.529662,-5.5200471 -5.593188,5.6000471 -5.593189,5.6000483 h 1.700879 1.700879 z m 17.583653,0.08 V 5.2453907 h -4.049597 c -4.029326,0 -4.046697,0.0032 -3.470403,0.64 0.320645,0.3543088 0.985589,0.64 1.489596,0.64 0.595914,0 0.910404,0.1658109 0.910404,0.4800001 0,0.264 -0.176821,0.48 -0.392935,0.48 -0.216115,0 0.824707,1.224 2.312935,2.7200002 1.488227,1.496001 2.81705,2.720001 2.952934,2.720001 0.135888,0 0.247066,-1.728 0.247066,-3.8400011 z m -3.44,-1.49193 c -0.22,-0.088772 -0.4,-0.3654036 -0.4,-0.6147367 0,-0.3155555 0.389021,-0.4533335 1.28,-0.4533335 0.880752,0 1.28,0.1390394 1.28,0.4457636 0,0.6830451 -1.172391,1.0208163 -2.16,0.6223066 z M 28.311389,29.110541 c -1.870371,-0.81436 -3.050896,-3.195054 -2.558058,-5.158679 0.112882,-0.449755 0.693309,-1.350702 1.28984,-2.002103 l 1.084601,-1.184367 5.145379,-0.10202 5.145379,-0.10202 v 4.50202 4.502021 l -4.56,-0.01253 c -3.088233,-0.0085 -4.878606,-0.151246 -5.547141,-0.442326 z m 3.488178,-1.837418 c 1.668883,-0.888852 1.992089,-2.683696 0.713507,-3.962276 -1.548275,-1.548276 -4.348717,-0.460315 -4.324368,1.68 0.01131,0.993677 0.466355,1.715495 1.429824,2.268044 0.822208,0.471537 1.316361,0.474761 2.181037,0.01423 z"
     id="path161"
     inkscape:connector-curvature="0" />
</svg>
