<?xml version="1.0" encoding="UTF-8" standalone="no"?>
<!-- Created with Inkscape (http://www.inkscape.org/) -->

<svg
   xmlns:dc="http://purl.org/dc/elements/1.1/"
   xmlns:cc="http://creativecommons.org/ns#"
   xmlns:rdf="http://www.w3.org/1999/02/22-rdf-syntax-ns#"
   xmlns:svg="http://www.w3.org/2000/svg"
   xmlns="http://www.w3.org/2000/svg"
   xmlns:sodipodi="http://sodipodi.sourceforge.net/DTD/sodipodi-0.dtd"
   xmlns:inkscape="http://www.inkscape.org/namespaces/inkscape"
   version="1.1"
   id="svg61"
   width="33.600006"
   height="41.280003"
   viewBox="0 0 33.600006 41.280003"
   sodipodi:docname="intro-nav-icon-3.svg"
   inkscape:version="0.92.4 (unknown)">
  <path
     style="stroke-width:0.32000002"
     d="M 3.520007,22.400001 V 3.5200002 h 10.003751 10.003751 l 5.03625,5.0436393 5.036249,5.0436395 V 27.44364 41.280002 h -15.04 -15.040001 z m 24.273205,12.376388 c 0.86466,-1.041853 -0.213834,-1.176387 -9.430538,-1.176387 -9.224512,0 -9.585211,0.04725 -9.161292,1.2 0.220494,0.599584 18.093462,0.576883 18.59183,-0.02362 z m 0.03516,-5.48237 c 0.858389,-1.034295 0.04335,-1.134018 -9.268366,-1.134018 -9.311722,0 -10.126756,0.09972 -9.268367,1.134018 0.321592,0.387495 1.882708,0.465982 9.268367,0.465982 7.385658,0 8.946774,-0.07849 9.268366,-0.465982 z m 0.171634,-5.934018 c 0,-0.413649 -1.27989,-0.49175 -9.258996,-0.565004 -5.395546,-0.04953 -9.382974,0.03897 -9.556118,0.212117 -0.884412,0.884413 0.318103,1.000856 9.476965,0.917686 8.049555,-0.0731 9.338149,-0.151035 9.338149,-0.564799 z m 0,-5.44 c 0,-0.413649 -1.27989,-0.491751 -9.258996,-0.565004 -5.395546,-0.04954 -9.382974,0.03897 -9.556118,0.212117 -0.884412,0.884413 0.318103,1.000856 9.476965,0.917686 8.049555,-0.0731 9.338149,-0.151036 9.338149,-0.564799 z m 4,-3.604001 c 0,-0.0462 -2.16,-2.240401 -4.8,-4.8759996 l -4.8,-4.7919979 v 4.8759989 4.8759996 h 4.8 c 2.64,0 4.8,-0.0378 4.8,-0.084 z M 17.49668,12.607705 c 0.328762,-0.856741 -0.539983,-1.077689 -4.25749,-1.082804 -2.731726,-0.0038 -3.650864,0.103598 -3.947549,0.461082 -0.765339,0.922178 -0.01489,1.134018 4.017295,1.134018 3.364325,0 4.022033,-0.08046 4.187744,-0.512296 z M 7e-6,18.880001 V 0 h 15.04 15.040001 V 4.0739964 8.1479931 L 26.949925,5.0296553 23.819843,1.9113179 12.949925,1.9956589 2.080007,2.0799999 1.997317,19.920001 1.914627,37.760002 H 0.957314 0 Z"
     id="path71"
     inkscape:connector-curvature="0" />
</svg>
