<?xml version="1.0" encoding="UTF-8" standalone="no"?>
<!-- Created with Inkscape (http://www.inkscape.org/) -->

<svg
   xmlns:dc="http://purl.org/dc/elements/1.1/"
   xmlns:cc="http://creativecommons.org/ns#"
   xmlns:rdf="http://www.w3.org/1999/02/22-rdf-syntax-ns#"
   xmlns:svg="http://www.w3.org/2000/svg"
   xmlns="http://www.w3.org/2000/svg"
   xmlns:sodipodi="http://sodipodi.sourceforge.net/DTD/sodipodi-0.dtd"
   xmlns:inkscape="http://www.inkscape.org/namespaces/inkscape"
   version="1.1"
   id="svg233"
   width="38.183887"
   height="41.065178"
   viewBox="0 0 38.183888 41.065178"
   sodipodi:docname="intro-nav-icon-2.svg"
   inkscape:version="0.92.4 (unknown)">
  <path
     style="stroke-width:0.32000002"
     d="m 0.09177784,40.722543 c -0.08469,-0.221399 -0.116605,-8.826541 -0.07093,-19.122542 l 0.08304,-18.7200009 2.62221896,-0.092654 2.62222,-0.092654 0.09778,-1.3473458 L 5.5438868,0 h 2.88 2.8799992 l 0.0984,1.36 0.0984,1.3600001 h 7.643202 7.643201 L 26.885489,1.36 26.983889,0 h 2.88 2.88 l 0.09778,1.3473458 0.09778,1.3473458 2.622221,0.092654 2.622218,0.092654 V 21.920001 40.960002 l -18.969068,0.08254 c -15.0050562,0.06529 -19.00124516,-0.0016 -19.12304416,-0.32 z M 32.26389,25.600001 v -10.08 h -13.12 -13.1200002 v 10.08 10.080001 h 13.1200002 13.12 z M 7.6238898,31.840002 v -2.240001 h 2.239999 2.2400002 v 2.240001 2.24 H 9.8638888 7.6238898 Z m 6.0799992,0 v -2.240001 h 2.4 2.4 v 2.240001 2.24 h -2.4 -2.4 z m 6.080001,0 v -2.240001 h 2.4 2.4 v 2.240001 2.24 h -2.4 -2.4 z m 6.4,0 v -2.240001 h 2.24 2.24 v 2.240001 2.24 h -2.24 -2.24 z M 7.6238898,25.600001 v -2.4 h 2.239999 2.2400002 v 2.4 2.4 H 9.8638888 7.6238898 Z m 6.0799992,0 v -2.4 h 2.4 2.4 v 2.4 2.4 h -2.4 -2.4 z m 6.080001,0 v -2.4 h 2.4 2.4 v 2.4 2.4 h -2.4 -2.4 z m 6.4,0 v -2.4 h 2.24 2.24 v 2.4 2.4 h -2.24 -2.24 z m -18.5600002,-6.08 v -2.4 h 2.239999 2.2400002 v 2.4 2.4 H 9.8638888 7.6238898 Z m 6.0799992,0.01402 v -2.41402 h 2.41402 2.414019 l -0.09402,2.32 -0.09402,2.32 -2.32,0.09402 -2.32,0.09402 z m 6.293334,2.172648 c -0.117333,-0.117333 -0.213333,-1.197334 -0.213333,-2.4 v -2.186668 h 2.4 2.4 v 2.4 2.4 h -2.186667 c -1.202667,0 -2.282667,-0.096 -2.4,-0.213333 z m 6.186667,-2.186667 v -2.4 h 2.24 2.24 v 2.4 2.4 h -2.24 -2.24 z m 10.88,-12.4800007 V 4.0000001 h -2.060682 -2.060685 l -0.09932,1.2000001 -0.09932,1.2 -2.96,0.092008 -2.96,0.092008 V 5.2920085 4.0000001 h -7.68 -7.679994 v 1.2920084 1.2920084 l -2.9599992,-0.092008 -2.96,-0.092008 -0.09932,-1.2 -0.09932,-1.2000001 h -2.060683 -2.060684 v 3.0400002 3.040001 h 17.9200012 17.92 z"
     id="path3946"
     inkscape:connector-curvature="0" />
</svg>
