<?xml version="1.0" encoding="UTF-8" standalone="no"?>
<!-- Created with Inkscape (http://www.inkscape.org/) -->

<svg
   xmlns:dc="http://purl.org/dc/elements/1.1/"
   xmlns:cc="http://creativecommons.org/ns#"
   xmlns:rdf="http://www.w3.org/1999/02/22-rdf-syntax-ns#"
   xmlns:svg="http://www.w3.org/2000/svg"
   xmlns="http://www.w3.org/2000/svg"
   xmlns:sodipodi="http://sodipodi.sourceforge.net/DTD/sodipodi-0.dtd"
   xmlns:inkscape="http://www.inkscape.org/namespaces/inkscape"
   version="1.1"
   id="svg107"
   width="64"
   height="64.000023"
   viewBox="0 0 64 64.000023"
   sodipodi:docname="key-tab-icon-4.svg"
   inkscape:version="0.92.4 (unknown)">
  <path
     style="stroke-width:0.31999999"
     d="m 2e-6,61.118795 v -2.881229 l 1.476907,-0.395011 c 1.047097,-0.280057 1.559666,-0.612688 1.761285,-1.142982 0.156408,-0.411386 0.69682,-1.349075 1.200916,-2.08376 0.504097,-0.734685 1.455509,-2.415789 2.114251,-3.735789 0.658741,-1.32 1.386347,-2.616 1.616902,-2.88 0.860467,-0.98529 2.134758,-3.902982 1.83537,-4.202368 C 9.840862,43.632885 8.068428,43.53901 6.06689,43.589048 2.479803,43.678718 2.425064,43.69147 2.241291,44.480024 2.097389,45.097496 1.820433,45.302904 1.027426,45.380299 L 2e-6,45.480574 v -3.99871 c 0,-3.748902 0.04094,-4.011706 0.655356,-4.206714 0.889394,-0.282281 1.584644,0.368836 1.584644,1.484055 0,1.505203 0.246393,1.391011 5.435792,-2.519181 0.759128,-0.572 1.691104,-1.04 2.071059,-1.04 1.297532,0 1.825858,-0.693677 1.71489,-2.251603 L 11.360002,31.520024 6.955526,31.430964 2.55105,31.341904 2.255265,32.119879 C 1.881049,33.104138 1.442745,33.374804 0.637138,33.119114 0.045736,32.931412 2e-6,32.629863 2e-6,28.918184 v -3.99871 l 1.04,0.100274 c 0.902708,0.08704 1.061122,0.239229 1.2,1.152868 0.24538,1.614281 0.206282,1.629002 4.665817,-1.75679 1.744237,-1.324268 1.986823,-1.443292 3.734183,-1.832157 0.776056,-0.172707 0.88,-0.343219 0.88,-1.443571 0,-2.300497 0.08178,-2.260301 -4.594237,-2.258052 l -4.205763,0.002 -0.545117,0.957977 C 1.793371,20.512488 1.385202,20.8 0.814885,20.8 H 2.0000001e-6 v -3.978436 c 0,-3.728467 0.04118,-3.991505 0.6553559999999,-4.186438 0.889394,-0.282282 1.584644,0.368835 1.584644,1.484056 0,0.50645 0.141312,0.920818 0.314028,0.920818 0.172715,0 1.602586,-0.942209 3.177491,-2.093798 1.574905,-1.15159 3.484795,-2.273691 4.244201,-2.49356 C 11.592407,9.9845686 11.959058,9.1463264 10.781743,8.6099059 9.602395,8.072559 7.128799,2.2447494 7.482283,0.83635651 L 7.692195,0 h 8.947807 8.947807 l 0.19924,0.79383718 c 0.1243,0.49524822 -0.129515,1.72896712 -0.674798,3.27999992 -1.162038,3.3053623 -1.489019,3.8959117 -2.411876,4.3560058 -1.254315,0.6253443 -1.00703,1.5745131 0.499627,1.9177471 1.186059,0.270198 3.300041,1.644175 5.851135,3.802931 1.225909,1.037375 1.988865,1.143118 1.988865,0.275651 0,-1.087445 0.37104,-1.626172 1.12,-1.626172 0.987002,0 1.12,0.492444 1.12,4.14699 0,2.384038 -0.113962,3.229226 -0.475926,3.529628 -0.639844,0.531025 -1.386383,0.196783 -1.760956,-0.788418 L 30.735843,18.88 h -4.293684 c -4.713921,0 -4.682157,-0.01385 -4.682157,2.042172 0,1.252936 0.490955,1.797828 1.619868,1.797828 0.489119,0 1.449784,0.472902 2.256,1.110551 2.875763,2.274487 4.876766,3.657608 5.095761,3.522262 0.124139,-0.07672 0.313386,-0.57789 0.42055,-1.113707 0.222401,-1.112006 0.953747,-1.535135 1.651895,-0.955724 0.361964,0.300402 0.475926,1.14559 0.475926,3.529628 0,1.724056 -0.08741,3.362424 -0.194237,3.640817 -0.293632,0.765194 -1.266032,0.607091 -1.862197,-0.302771 -0.529463,-0.808062 -0.534825,-0.808847 -4.916803,-0.72 l -4.386763,0.08894 -0.09749,1.518893 c -0.104075,1.621517 0.107935,1.844336 2.177488,2.288515 0.44,0.09444 1.478789,0.7164 2.30842,1.382147 2.641027,2.119319 3.863802,2.970445 4.267496,2.970445 0.216072,0 0.487409,-0.504 0.602971,-1.12 0.220415,-1.174912 0.960838,-1.492275 1.717113,-0.736 0.598182,0.598182 0.520202,6.784598 -0.09193,7.292618 -0.639844,0.531024 -1.386383,0.196784 -1.760956,-0.788416 -0.305077,-0.802426 -0.334777,-0.808202 -4.155194,-0.808202 -3.18672,0 -3.84792,0.08151 -3.84792,0.474365 0,0.260899 0.587954,1.434966 1.306564,2.609037 0.71861,1.17407 1.442197,2.491411 1.60797,2.92743 0.165773,0.436016 0.565935,1.169949 0.88925,1.630963 0.323314,0.461011 1.084426,1.774205 1.691359,2.918205 1.629964,3.072298 1.960193,3.52 2.596377,3.52 1.041002,0 2.135414,1.429181 2.086698,2.724998 -0.02643,0.7033 0.137033,1.286445 0.408864,1.458512 0.696035,0.44058 4.667289,0.349236 5.823196,-0.133942 1.983716,-0.829203 1.902324,-0.117107 1.849152,-16.178675 -0.0538,-16.252302 -0.05544,-16.237452 1.944365,-17.662826 0.736243,-0.524764 1.513069,-0.767231 2.459168,-0.76757 1.212986,-4.48e-4 1.537469,0.165138 2.64,1.347112 L 49.6,29.735213 v 15.068284 c 0,16.070349 0.05258,16.64456 1.56017,17.038803 0.877878,0.229571 2.060947,-0.435549 2.43983,-1.371667 0.20441,-0.50504 0.289315,-7.758592 0.235053,-20.080439 L 53.750113,21.100395 52.949319,20.795934 C 52.095086,20.471154 51.423441,19.183981 51.713623,18.42778 52.035018,17.59023 51.239038,16.675862 49.996116,16.454827 48.26265,16.146558 46.955162,15.248719 46.147815,13.812237 45.573267,12.789971 45.44,12.04593 45.44,9.8604264 c 0,-2.7551853 0.266934,-3.4604304 1.309763,-3.4604304 0.704493,0 0.930237,-0.6422003 0.930237,-2.6463706 0,-1.1678452 0.205414,-1.9357597 0.72,-2.6916413 0.637885,-0.9369929 0.884234,-1.0565343 2.16,-1.0481395 1.274989,0.00839 1.540842,0.1423864 2.32,1.1693427 0.850061,1.1204049 1.013901,1.7062034 0.89481,3.1993338 -0.07342,0.9205965 0.527456,2.0174749 1.10519,2.0174749 0.658461,0 1.12,-1.040073 1.12,-2.5239059 0,-1.3389582 0.546986,-2.9160941 1.011366,-2.9160941 0.147748,0 0.268634,-0.216 0.268634,-0.48 0,-0.3617832 0.374352,-0.4756394 1.52,-0.4622947 2.112282,0.024604 3.003363,1.1467893 3.257638,4.102503 C 62.231626,6.1426574 62.28041,6.2446456 63.12,6.341251 L 64,6.4425064 v 3.6594446 3.659445 l -1.2,1.132776 c -0.66,0.623026 -1.56,1.213659 -2,1.312516 -2.644758,0.594217 -2.720112,0.632136 -2.806301,1.412222 -0.255081,2.308652 -0.434793,2.777081 -1.199017,3.125284 L 56,21.106275 v 19.506028 c 0,12.93696 -0.114026,19.809405 -0.338586,20.406861 -0.186224,0.495459 -0.654224,1.36785 -1.04,1.938646 -0.678857,1.004439 -0.773449,1.037866 -2.941414,1.039428 l -2.24,0.0016 -0.88,-1.392983 -0.88,-1.392979 v -15.40642 c 0,-14.979765 -0.01772,-15.424156 -0.64,-16.046432 -0.352,-0.352 -1,-0.64 -1.44,-0.64 -0.44,0 -1.088,0.288 -1.44,0.64 -0.621683,0.621684 -0.640061,1.068133 -0.642109,15.6 -0.0022,16.442125 0.144016,15.137344 -1.977232,17.630141 l -0.859341,1.009859 H 20.340659 0 Z m 30.533828,0.766992 c 0.554958,-0.212957 0.68798,-1.255629 0.198764,-1.557981 -0.411872,-0.25455 -27.758502,-0.263702 -28.169928,-0.0094 -0.455295,0.281389 -0.401646,1.356445 0.07734,1.549719 0.576679,0.232694 27.289387,0.249638 27.893828,0.0177 z m -18.934104,-7.61591 c 1.716152,-1.775955 3.120276,-3.42049 3.120276,-3.654519 0,-0.628595 -2.516995,-2.935334 -3.202886,-2.935334 -0.606394,0 -1.917114,1.400803 -1.917114,2.04887 0,0.199412 -0.338971,0.863991 -0.753269,1.476848 -0.414298,0.612855 -1.342268,2.209511 -2.062156,3.548125 -1.482581,2.756823 -1.375518,3.321027 0.561249,2.957687 0.890491,-0.167056 1.802844,-0.90521 4.2539,-3.441677 z m 9.78476,3.016694 c 0.126191,-0.378573 -0.310547,-0.845542 -3.538772,-3.783715 l -1.194287,-1.086982 -2.103926,1.847145 c -2.255509,1.980224 -2.988079,2.965757 -2.451267,3.297699 0.177269,0.10962 2.309041,0.184592 4.73727,0.166608 3.270472,-0.02422 4.450223,-0.138476 4.550982,-0.440755 z m 6.135516,0.318317 c 0.386909,-0.246118 0.405902,-0.424941 0.09793,-0.922045 -0.210137,-0.339193 -1.121754,-1.948848 -2.025813,-3.577017 -2.603559,-4.688884 -3.129686,-5.425802 -3.873778,-5.425802 -0.747731,0 -3.158339,2.232912 -3.158339,2.925523 0,0.684717 5.997067,6.704013 6.972018,6.997859 1.180192,0.355706 1.430833,0.355895 1.987982,0.0016 z M 17.223466,48.213506 c 0.05986,-0.308663 -0.100747,-0.533482 -0.381115,-0.533482 -0.594475,0 -0.953266,0.521648 -0.671909,0.976893 0.28945,0.468339 0.928377,0.199299 1.053024,-0.443411 z m 3.412449,-3.086868 c 0.106526,-0.172364 0.03796,-0.604364 -0.152374,-0.96 -0.314831,-0.588268 -0.661639,-0.646614 -3.843539,-0.646614 -3.1819,0 -3.528708,0.05835 -3.843539,0.646614 -0.190332,0.355636 -0.2589,0.787636 -0.152374,0.96 0.108814,0.176064 1.859766,0.313386 3.995913,0.313386 2.136147,0 3.887099,-0.137322 3.995913,-0.313386 z m -9.382574,-4.091955 c 0.167956,-0.167955 0.260664,-1.009462 0.206017,-1.870016 -0.08899,-1.401389 -0.183256,-1.574445 -0.903461,-1.658576 -0.488103,-0.05702 -1.36839,0.287565 -2.24,0.876835 -2.51653,1.701348 -2.985289,2.150458 -2.786159,2.669386 0.154295,0.402083 0.676828,0.474944 2.803932,0.390963 1.437864,-0.05677 2.751716,-0.240633 2.919671,-0.408592 z m 5.061041,0.255587 c 0.396136,-0.25048 0.320286,-0.460793 -0.45987,-1.2751 -0.514001,-0.536503 -1.267177,-0.975146 -1.674379,-0.975146 -0.610782,0 -0.740131,0.169578 -0.740131,0.97031 0,0.707168 0.195262,1.0488 0.72,1.259719 0.947593,0.380886 1.574674,0.386771 2.15438,0.02022 z m 11.52562,-0.02271 c 0.403486,-0.271229 0.326971,-0.450605 -0.48,-1.12529 -1.83233,-1.531948 -3.79366,-2.702246 -4.528766,-2.702246 -0.843216,0 -1.180386,0.862426 -1.014811,2.595722 l 0.103577,1.084278 2.08,0.184768 c 1.144,0.101622 2.368,0.207418 2.72,0.235101 0.352,0.02768 0.856,-0.09487 1.12,-0.272333 z m -8.32,-2.536278 c 0,-1.003047 -0.709685,-1.611258 -1.880077,-1.611258 -1.146898,0 -1.158065,0.711699 -0.02599,1.656794 1.394239,1.163961 1.906071,1.151734 1.906071,-0.04554 z m 0.02107,-4.386679 c 0.240706,-0.633104 0.217856,-0.962563 -0.08792,-1.26768 -0.337141,-0.336413 -0.604487,-0.291001 -1.453151,0.246845 -1.450042,0.91897 -1.405184,1.876256 0.08792,1.876256 0.928159,0 1.185521,-0.151501 1.453151,-0.855421 z m -4.05488,-1.524937 c 0.600027,-0.49064 0.857116,-0.937348 0.730044,-1.268493 -0.400904,-1.044734 -2.776234,-0.302423 -2.776234,0.867597 0,1.40215 0.66288,1.532022 2.04619,0.400896 z m -4.585153,-4.030901 c 0.483865,-0.258956 0.618963,-0.676695 0.618963,-1.913903 0,-1.410886 -0.08474,-1.603912 -0.780776,-1.778607 -1.257135,-0.315521 -5.672208,2.841384 -5.151686,3.683605 0.270342,0.437424 4.499561,0.444512 5.313499,0.0089 z m 5.337921,-0.21965 c 0.183053,-0.557669 -1.36613,-2.009091 -2.144412,-2.009091 -0.51149,0 -0.654546,0.20634 -0.654546,0.944099 0,0.558657 0.228628,1.080367 0.56,1.277871 0.714582,0.425907 2.071632,0.296879 2.238958,-0.212879 z m 11.47736,0.172145 c 0.261302,-0.422795 -1.913797,-2.439059 -3.625812,-3.36104 -1.420528,-0.765004 -2.13731,-0.318219 -2.266983,1.41306 -0.143726,1.918884 0.434818,2.326744 3.300449,2.326744 1.47091,0 2.446338,-0.142519 2.592346,-0.378764 z m -8.071702,-2.044417 c 0.352559,-0.918754 -0.380804,-1.736819 -1.556989,-1.736819 -1.470747,0 -1.666963,0.478464 -0.586151,1.429303 1.035843,0.911278 1.865758,1.030361 2.14314,0.307516 z m -0.137022,-4.593638 c 0.419103,-0.783102 0.107558,-1.623181 -0.601961,-1.623181 -0.641541,0 -2.37483,1.704136 -2.05678,2.022187 0.489278,0.489278 2.33129,0.212841 2.658741,-0.399006 z m -4.030749,-1.646407 c 1.449743,-1.140368 0.87136,-2.103724 -0.969769,-1.615248 -0.722074,0.191577 -0.927528,0.44847 -1.007351,1.259567 -0.08145,0.827646 0.01557,1.018907 0.516846,1.018907 0.339416,0 0.996539,-0.298452 1.460274,-0.663226 z m 40.328371,-2.401516 c 0.292294,-0.761712 -0.150765,-1.415258 -0.959453,-1.415258 -0.421168,0 -0.765763,0.06022 -0.765763,0.133828 0,0.0736 -0.08028,0.343038 -0.178403,0.59874 -0.227498,0.592847 0.695382,1.534554 1.282921,1.309093 0.2453,-0.09413 0.524612,-0.376011 0.620698,-0.626403 z M 10.716754,16.321259 c 0.764576,-0.290691 0.829821,-0.45274 0.740832,-1.84 -0.09178,-1.430751 -0.154722,-1.526847 -1.058192,-1.615588 -0.728958,-0.0716 -1.442759,0.263939 -2.96,1.391419 -2.036331,1.513221 -2.309755,1.884366 -1.599392,2.171004 0.721524,0.291142 4.020055,0.218881 4.876752,-0.106835 z m 5.536988,-0.364953 c 0.113149,-0.597285 -1.971989,-2.038742 -2.487904,-1.719889 -0.528601,0.326694 -0.372461,1.704016 0.234164,2.065577 0.800173,0.476921 2.136743,0.271912 2.25374,-0.345688 z m 11.494672,0.161437 c 0.06588,-0.199255 -0.764835,-1.027255 -1.846025,-1.84 -2.055966,-1.545498 -3.583648,-1.921424 -3.948151,-0.971547 -0.397648,1.036256 -0.199483,2.658906 0.365764,2.995017 0.744543,0.442726 5.271974,0.289707 5.428412,-0.18347 z m -8.095389,-1.602809 c 0.306534,-0.798815 -0.659571,-2.03491 -1.590443,-2.03491 -1.219068,0 -1.35384,0.892382 -0.268769,1.779641 1.100384,0.899781 1.586289,0.966496 1.859212,0.255269 z m 39.992756,-0.07277 c 1.177664,-0.257137 1.843539,-1.206921 1.154221,-1.646348 -0.76695,-0.488917 -11.689062,-0.403235 -12.102512,0.09494 -0.465834,0.561296 -0.02893,1.160799 1.089786,1.495337 1.065337,0.318577 8.463536,0.360655 9.858505,0.05607 z M 19.440002,10.270477 C 19.772701,10.143832 19.414582,8.6680419 19.01383,8.5142605 18.188324,8.1974838 14.728098,8.2931734 14.058965,8.6512829 c -0.770473,0.4123446 -0.797696,1.1333254 -0.05896,1.5615781 0.414949,0.240551 4.836407,0.287379 5.44,0.05762 z M 61.798927,9.8679997 C 62.676402,8.4836541 61.787507,8.298639 54.713663,8.3932739 48.856828,8.4716269 48.194844,8.5360432 47.874584,9.0587661 47.15812,10.228164 48.131007,10.403325 55.035282,10.348 60.062597,10.30772 61.588866,10.199399 61.798927,9.8679997 Z M 22.307473,5.4143754 c 0.217443,-0.4541066 0.435216,-1.3181066 0.48394,-1.92 l 0.08859,-1.0943514 -6.216891,-0.087109 c -3.793732,-0.053156 -6.340251,0.036252 -6.533386,0.2293861 -0.20866,0.2086598 -0.114058,0.7834857 0.277657,1.6871087 0.996,2.2976135 0.684859,2.1948675 6.354259,2.0983226 l 5.15048,-0.087708 z M 51.508744,5.7810611 C 52.007938,4.8483069 51.90812,3.6750486 51.261647,2.8766873 50.7183,2.2056807 50.650508,2.1952339 50.141647,2.7040935 c -0.629578,0.6295763 -0.73001,2.7395657 -0.157645,3.3119305 0.560723,0.5607216 1.147277,0.4703331 1.524742,-0.2349629 z m 8.378327,-0.1565488 c 0.45328,-0.9948432 0.09327,-2.9421618 -0.592586,-3.2053501 -0.820077,-0.3146926 -1.452688,0.5809859 -1.43271,2.0284935 0.0099,0.7196688 0.107593,1.4533616 0.217027,1.6304285 0.371677,0.6013827 1.450944,0.3306672 1.808269,-0.4535719 z"
     id="path200"
     inkscape:connector-curvature="0" />
</svg>
