<?xml version="1.0" encoding="UTF-8" standalone="no"?>
<!-- Created with Inkscape (http://www.inkscape.org/) -->

<svg
   xmlns:dc="http://purl.org/dc/elements/1.1/"
   xmlns:cc="http://creativecommons.org/ns#"
   xmlns:rdf="http://www.w3.org/1999/02/22-rdf-syntax-ns#"
   xmlns:svg="http://www.w3.org/2000/svg"
   xmlns="http://www.w3.org/2000/svg"
   xmlns:sodipodi="http://sodipodi.sourceforge.net/DTD/sodipodi-0.dtd"
   xmlns:inkscape="http://www.inkscape.org/namespaces/inkscape"
   version="1.1"
   id="svg117"
   width="64"
   height="55.301243"
   viewBox="0 0 64 55.301243"
   sodipodi:docname="key-tab-icon-5.svg"
   inkscape:version="0.92.4 (unknown)">
  <path
     style="stroke-width:0.31999999"
     d="M 5.782747,54.770125 C 4.179933,53.952829 3.437712,52.752787 3.267802,50.703891 L 3.120749,48.930621 H 1.560374 0 v -3.68 -3.68 H 1.6 3.2 V 27.65062 13.73062 H 1.6 0 v -3.68 -3.6800003 H 1.560374 3.120749 L 3.267802,4.597349 C 3.441021,2.5085524 4.18613,1.3366995 5.874566,0.497617 7.480112,-0.3002723 9.066902,0.0135213 10.457238,1.4038577 11.320761,2.2673809 11.52,2.7165276 11.52,3.7996568 c 0,1.6385875 0.4642,2.5709629 1.28,2.5709629 0.8158,0 1.28,-0.9323754 1.28,-2.5709629 0,-1.0831292 0.199239,-1.5322759 1.062762,-2.3957991 1.390336,-1.3903364 2.977126,-1.70413 4.582672,-0.9062407 1.625979,0.8080437 2.374572,1.9447553 2.624153,3.9846817 0.159007,1.2996317 0.350982,1.7468359 0.785785,1.8304817 0.942397,0.1812944 1.504536,-0.5583601 1.505824,-1.9813431 0.0015,-1.6816499 0.891939,-3.1443157 2.329386,-3.826429 1.418968,-0.6733444 2.239868,-0.6733444 3.658836,0 1.437446,0.6821133 2.327862,2.1447791 2.329385,3.826429 0.0013,1.422983 0.563427,2.1626375 1.505824,1.9813431 0.434803,-0.083646 0.626778,-0.53085 0.785786,-1.8304817 0.249581,-2.0399264 0.998173,-3.176638 2.624153,-3.9846817 1.605546,-0.7978893 3.192336,-0.4840957 4.582672,0.9062407 C 43.320762,2.2673809 43.52,2.7165276 43.52,3.7996568 c 0,1.6385875 0.464198,2.5709629 1.28,2.5709629 0.815802,0 1.28,-0.9323754 1.28,-2.5709629 0,-1.0831292 0.199238,-1.5322759 1.062762,-2.3957991 2.601536,-2.6015348 6.658316,-1.0868045 7.162809,2.674466 l 0.178698,1.332296 H 56.042134 57.6 v 1.6234637 c 0,1.3734829 0.08623,1.6070292 0.56,1.5167309 0.31471,-0.059982 0.607328,-0.4557133 0.668051,-0.9034637 0.229843,-1.6947645 2.03425,-2.6839197 3.717613,-2.037953 C 63.423142,5.9461186 64,7.5193609 64,9.575766 c 0,2.000467 -0.352186,3.053616 -1.252269,3.744677 -1.298323,0.996819 -3.735005,-0.09157 -3.927155,-1.754127 C 58.760166,11.043612 58.496368,10.653682 58.16,10.589893 57.686298,10.500059 57.6,10.733877 57.6,12.107157 V 13.73062 H 56 54.4 v 13.92 13.920001 H 56 c 1.20889,0 1.6,0.117334 1.6,0.48 0,0.394665 0.56889,0.48 3.2,0.48 H 64 v 2.72 2.72 h -3.2 c -2.63111,0 -3.2,0.08533 -3.2,0.48 0,0.36104 -0.386707,0.48 -1.560374,0.48 h -1.560375 l -0.147053,1.77327 c -0.173219,2.088797 -0.918329,3.26065 -2.606764,4.099732 -1.605546,0.797891 -3.192336,0.484096 -4.582672,-0.90624 C 46.279238,53.033859 46.08,52.584714 46.08,51.501584 c 0,-1.638589 -0.464198,-2.570963 -1.28,-2.570963 -0.815802,0 -1.28,0.932374 -1.28,2.570963 0,1.08313 -0.199238,1.532275 -1.062762,2.395799 -1.390336,1.390336 -2.977126,1.704131 -4.582672,0.90624 -1.62598,-0.808042 -2.374572,-1.944756 -2.624153,-3.984682 -0.159008,-1.299632 -0.350983,-1.746835 -0.785786,-1.83048 -0.942397,-0.181296 -1.504534,0.558358 -1.505824,1.981341 -0.0016,1.681651 -0.891939,3.144317 -2.329385,3.826432 -1.418968,0.673344 -2.239868,0.673344 -3.658836,0 -1.437447,-0.682115 -2.327863,-2.144781 -2.329386,-3.826432 -0.0013,-1.422983 -0.563427,-2.162637 -1.505824,-1.981341 -0.434803,0.08365 -0.626778,0.530848 -0.785785,1.83048 -0.249581,2.039926 -0.998174,3.17664 -2.624153,3.984682 -1.605546,0.797891 -3.192336,0.484096 -4.582672,-0.90624 C 14.279239,53.033859 14.08,52.584714 14.08,51.501584 c 0,-1.638589 -0.4642,-2.570963 -1.28,-2.570963 -0.804261,0 -1.28,0.927619 -1.28,2.495808 0,1.511168 -0.931405,2.831197 -2.44345,3.46297 -1.381848,0.577372 -1.969311,0.556099 -3.293803,-0.119274 z M 9.04,52.512384 c 0.355149,-0.305017 0.56,-0.936857 0.56,-1.727251 0,-2.344659 1.212218,-3.774512 3.2,-3.774512 1.987782,0 3.2,1.429853 3.2,3.774512 0,1.455862 0.818568,2.385488 2.100508,2.385488 1.301929,0 2.068185,-1.017261 2.354276,-3.125475 0.304856,-2.246496 1.074904,-3.034525 2.965282,-3.034525 1.853272,0 3.139934,1.352227 3.139934,3.299933 0,1.859776 0.796881,2.886733 2.24,2.886733 1.443119,0 2.24,-1.026957 2.24,-2.886733 0,-1.947706 1.286662,-3.299933 3.139933,-3.299933 1.890381,0 2.660425,0.788029 2.965283,3.034525 0.28609,2.108214 1.052349,3.125475 2.354275,3.125475 1.281943,0 2.100509,-0.929626 2.100509,-2.385488 0,-2.344659 1.212218,-3.774512 3.2,-3.774512 1.987782,0 3.2,1.429853 3.2,3.774512 0,2.18312 2.143203,3.184509 3.63111,1.696598 L 52.32,51.792842 V 27.65062 3.5083976 L 51.63111,2.8195085 C 50.143203,1.3315994 48,2.3329879 48,4.5161067 c 0,2.3446596 -1.212218,3.7745131 -3.2,3.7745131 -1.987782,0 -3.2,-1.4298535 -3.2,-3.7745131 0,-1.4558626 -0.818566,-2.3854871 -2.100509,-2.3854871 -1.301926,0 -2.068185,1.017262 -2.354275,3.125475 -0.304858,2.246496 -1.074902,3.0345252 -2.965283,3.0345252 -1.853271,0 -3.139933,-1.3522263 -3.139933,-3.2999339 0,-1.8597766 -0.796881,-2.8867329 -2.24,-2.8867329 -1.443119,0 -2.24,1.0269563 -2.24,2.8867329 0,1.9477076 -1.286662,3.2999339 -3.139934,3.2999339 -1.890378,0 -2.660426,-0.7880292 -2.965282,-3.0345252 C 20.168693,3.1478816 19.402437,2.1306196 18.100508,2.1306196 16.818568,2.1306196 16,3.0602441 16,4.5161067 c 0,2.3446596 -1.212218,3.7745131 -3.2,3.7745131 -1.987782,0 -3.2,-1.4298535 -3.2,-3.7745131 C 9.6,2.3330417 7.456885,1.3316326 5.968889,2.8194049 L 5.28,3.5081902 5.20142,27.259406 C 5.11744,52.643312 5.090478,52.17816 6.692149,52.976679 7.518002,53.38841 8.170161,53.259443 9.039998,52.512384 Z M 22.494318,44.385523 C 20.427906,43.850061 20.48,44.285075 20.48,27.564873 V 12.421529 l 0.785454,-0.785454 C 22.519186,10.382343 24.412229,10.4666 25.68,11.832561 l 0.88,0.948156 v 14.8504 14.8504 l -0.796492,0.946576 c -0.907795,1.078854 -1.796352,1.339081 -3.26919,0.95743 z m 1.789859,-2.291737 C 24.54503,41.779475 24.623338,37.682857 24.56336,27.488587 24.48903,14.854952 24.424052,13.284942 23.963495,12.994495 23.679418,12.815344 23.211418,12.759164 22.923495,12.86965 22.44948,13.051547 22.4,14.442637 22.4,27.587244 c 0,7.984189 0.096,14.612711 0.213333,14.730042 0.360849,0.360852 1.288905,0.236708 1.670844,-0.2235 z m 9.086745,2.428755 c -0.389991,-0.06246 -1.073991,-0.547248 -1.519999,-1.077296 L 31.04,42.481517 v -14.8504 -14.8504 l 0.88,-0.948156 c 1.26777,-1.365961 3.160813,-1.450218 4.414544,-0.196486 L 37.12,12.421529 v 15.179095 c 0,13.983952 -0.04409,15.232624 -0.56,15.858957 -0.616835,0.748864 -2.088192,1.239286 -3.189078,1.06296 z M 35.04,27.655003 C 35.04,13.744769 35.00851,12.933321 34.464627,12.828578 32.964253,12.539633 32.96,12.581469 32.96,27.625803 c 0,14.896354 0.01398,15.040923 1.436262,14.83708 C 35.030576,42.371973 35.04,42.15519 35.04,27.655003 Z M 10.657844,43.678326 9.76,42.906035 V 27.65062 12.395207 l 0.897844,-0.772294 c 1.217811,-1.047516 3.066501,-1.047516 4.284312,0 L 15.84,12.395207 V 27.65062 42.906035 l -0.897844,0.772291 c -0.616221,0.530052 -1.288143,0.772295 -2.142156,0.772295 -0.854013,0 -1.525935,-0.242243 -2.142156,-0.772295 z m 3.090897,-1.766668 c 0.454121,-0.848532 0.454121,-27.673543 0,-28.522075 -0.426185,-0.796334 -1.471297,-0.796334 -1.897482,0 -0.454121,0.848532 -0.454121,27.673543 0,28.522075 0.182192,0.340428 0.609126,0.618963 0.948741,0.618963 0.339615,0 0.766549,-0.278535 0.948741,-0.618963 z M 42.657843,43.678326 41.76,42.906035 V 27.65062 12.395207 l 0.897843,-0.772294 c 1.217811,-1.047516 3.066503,-1.047516 4.284314,0 L 47.84,12.395207 V 27.65062 42.906035 l -0.897843,0.772291 c -0.616221,0.530052 -1.288144,0.772295 -2.142157,0.772295 -0.854013,0 -1.525936,-0.242243 -2.142157,-0.772295 z m 3.090899,-1.766668 C 45.962227,41.512755 46.08,36.442496 46.08,27.65062 c 0,-8.791876 -0.117773,-13.862135 -0.331258,-14.261037 -0.426185,-0.796334 -1.471299,-0.796334 -1.897484,0 C 43.637773,13.788485 43.52,18.858744 43.52,27.65062 c 0,8.791876 0.117773,13.862135 0.331258,14.261038 0.182192,0.340428 0.609126,0.618963 0.948742,0.618963 0.339616,0 0.76655,-0.278535 0.948742,-0.618963 z M 3.2,45.227158 c 0,-1.525632 -0.08096,-1.768121 -0.56,-1.67734 -0.394845,0.07483 -0.589882,0.469168 -0.661323,1.337116 -0.124094,1.507636 0.08804,2.123687 0.73128,2.123687 0.38144,0 0.490043,-0.395251 0.490043,-1.783463 z m 52.32,0.02346 c 0,-1.261043 -0.116205,-1.613613 -0.56,-1.699082 -0.479949,-0.09243 -0.56,0.150448 -0.56,1.699082 0,1.548633 0.08005,1.79151 0.56,1.699081 0.443795,-0.08547 0.56,-0.438038 0.56,-1.699081 z m 6.56,0 c 0,-0.380954 -0.462221,-0.48 -2.24,-0.48 -1.777779,0 -2.24,0.09905 -2.24,0.48 0,0.380953 0.462221,0.48 2.24,0.48 1.777779,0 2.24,-0.09905 2.24,-0.48 z M 3.2,10.027157 C 3.2,8.5015238 3.11904,8.2590345 2.64,8.3498172 2.245155,8.4246442 2.050118,8.8189858 1.978677,9.6869327 1.854583,11.194569 2.066717,11.81062 2.709957,11.81062 3.091397,11.81062 3.2,11.415369 3.2,10.027157 Z M 55.52,9.5706198 c 0,-1.7181873 -0.09545,-2.089618 -0.56,-2.1790813 -0.491155,-0.094588 -0.56,0.1733043 -0.56,2.1790813 0,2.0057772 0.06885,2.2736692 0.56,2.1790812 0.464547,-0.08946 0.56,-0.460894 0.56,-2.1790812 z m 6.365763,1.7338282 c 0.288023,-0.750569 0.226141,-3.107986 -0.09489,-3.6148251 -0.533693,-0.8425997 -0.990877,0.00938 -0.990877,1.8465489 0,1.0162802 0.096,1.9437822 0.213334,2.0611152 0.350423,0.350424 0.666269,0.244408 0.872429,-0.292839 z"
     id="path179"
     inkscape:connector-curvature="0" />
</svg>
