<?xml version="1.0" encoding="UTF-8" standalone="no"?>
<!-- Created with Inkscape (http://www.inkscape.org/) -->

<svg
   xmlns:dc="http://purl.org/dc/elements/1.1/"
   xmlns:cc="http://creativecommons.org/ns#"
   xmlns:rdf="http://www.w3.org/1999/02/22-rdf-syntax-ns#"
   xmlns:svg="http://www.w3.org/2000/svg"
   xmlns="http://www.w3.org/2000/svg"
   xmlns:sodipodi="http://sodipodi.sourceforge.net/DTD/sodipodi-0.dtd"
   xmlns:inkscape="http://www.inkscape.org/namespaces/inkscape"
   version="1.1"
   id="svg97"
   width="64.000008"
   height="59.827145"
   viewBox="0 0 64.000008 59.827144"
   sodipodi:docname="key-tab-icon-3.svg"
   inkscape:version="0.92.4 (unknown)">
  <path
     style="stroke-width:0.31999999"
     d="m 47.304793,58.306502 c -2.027475,-2.042784 -2.800499,-4.22783 -2.254442,-6.372464 0.506272,-1.988361 3.659885,-8.285203 4.907428,-9.798684 1.069203,-1.29713 2.121875,-1.519492 2.913107,-0.615354 1.121024,1.280986 3.880243,6.069149 4.752054,8.2464 1.677658,4.189744 1.003431,6.734992 -2.520112,9.5136 -0.557133,0.439347 -1.312617,0.557091 -3.506477,0.546502 l -2.796342,-0.0135 z m 6.642685,-1.495075 C 55.276438,55.940659 56.052787,54.41175 55.903155,52.96 55.772953,51.696739 54.316297,48.335978 52.886483,46 c -1.183504,-1.933565 -1.704807,-1.639072 -3.567543,2.015347 -1.407085,2.760493 -1.638931,3.474711 -1.638931,5.048797 0,2.051402 0.466835,2.954227 2.037347,3.94008 1.159699,0.727971 2.949338,0.646406 4.230122,-0.192797 z M 40.173855,49.615299 c -0.577385,-0.638003 -0.577385,-0.672595 0,-1.310598 1.241876,-1.372256 4.400624,-0.266583 3.471927,1.215299 -0.537914,0.858326 -2.727018,0.918413 -3.471927,0.0953 z m 19.422487,0.09155 c -0.720416,-0.290234 -1.123047,-1.376787 -0.699357,-1.887302 0.443421,-0.534288 2.306086,-0.608868 3.204061,-0.128288 1.678288,0.898195 -0.642531,2.765804 -2.504704,2.01559 z M 39.260435,45.886714 c -1.01017,-0.54762 -1.079524,-1.583722 -0.14521,-2.16938 0.425997,-0.267027 0.825616,-0.202406 1.717034,0.277655 1.340979,0.722166 1.641833,1.257382 1.084368,1.929085 -0.499936,0.602387 -1.502074,0.588291 -2.656192,-0.03736 z M 60.569014,45.401005 C 60.371567,45.203558 60.28822,44.838234 60.383795,44.589171 60.619161,43.975814 62.183065,43.2 63.184118,43.2 c 0.682963,0 0.815891,0.148038 0.815891,0.908634 0,0.663155 -0.220202,1.008966 -0.815056,1.28 -1.032192,0.470297 -2.152714,0.475596 -2.615939,0.01238 z M 43.269935,44.074435 C 42.476396,43.22975 42.371439,42.55657 42.944009,41.984 c 0.620544,-0.620544 1.35599,-0.446909 2.305686,0.544362 1.128141,1.177523 1.004714,2.078265 -0.302377,2.206697 -0.685683,0.06737 -1.174218,-0.125033 -1.677383,-0.660624 z m 13.552932,0.222707 c -0.717712,-0.717712 -0.628912,-1.176636 0.422608,-2.184054 1.180739,-1.131219 2.39048,-1.052826 2.531654,0.164061 0.07132,0.614701 -0.169043,1.06111 -0.90455,1.68 -1.16696,0.981933 -1.373514,1.016192 -2.049712,0.339993 z M 40.400009,38.649443 c -0.659338,-0.317987 -0.72,-0.566905 -0.72,-2.954342 0,-2.762461 0.265891,-3.375101 1.464819,-3.375101 1.171069,0 1.450432,-0.706009 1.349187,-3.409665 L 42.400005,26.4 24.768964,26.24 C 6.642947,26.075508 6.068727,26.032507 6.084907,24.840818 c 0.0145,-1.07077 0.64224,-1.318842 3.7423,-1.478984 L 12.960007,23.2 13.120005,20.8 c 0.148384,-2.225761 0.214951,-2.407775 0.916907,-2.507093 1.134016,-0.160449 1.466776,0.398994 1.643093,2.762401 l 0.16,2.144692 18.08,0.16 c 9.944,0.088 18.26,0.276499 18.48,0.418885 0.22,0.142387 0.4,0.601889 0.4,1.021115 0,0.419226 -0.18,0.878441 -0.4,1.020478 -0.22,0.142036 -1.912,0.330535 -3.76,0.418885 l -3.36,0.160637 -0.09478,2.553483 c -0.07893,2.126529 -0.0019,2.621455 0.461162,2.96 0.40398,0.295397 2.241814,0.406517 6.723526,0.406517 5.770198,0 6.188922,-0.03988 6.498838,-0.618963 0.208313,-0.389246 0.331254,-4.375585 0.331254,-10.741037 0,-6.365452 -0.122941,-10.351791 -0.331258,-10.741037 C 58.558392,9.6390634 58.138325,9.6 52.212747,9.6 c -4.492579,0 -6.43598,0.1112381 -6.708742,0.384 -0.216464,0.216465 -0.384,1.253587 -0.384,2.377143 0,1.385281 -0.15336,2.146502 -0.502858,2.496 -0.607366,0.607365 -0.817046,0.621687 -1.505904,0.102857 -0.395164,-0.297628 -0.55414,-1.014233 -0.621161,-2.8 l -0.09008,-2.4 -7.52,-0.16 c -4.136,-0.088 -7.7,-0.2764986 -7.92,-0.4188854 C 26.390787,8.8127107 26.464272,7.4652077 27.066174,7.2342365 27.344569,7.1274064 27.915502,7.04 28.334915,7.04 c 0.426424,0 0.90859,-0.2728426 1.093828,-0.6189629 0.425316,-0.7947104 0.425316,-2.4473638 0,-3.2420744 C 29.118728,2.5996947 28.699708,2.56 22.894915,2.56 19.483502,2.56 16.464569,2.647406 16.186174,2.7542364 15.805312,2.9003867 15.680002,3.4068464 15.680002,4.8 c 0,1.9517178 0.221639,2.24 1.722172,2.24 1.414587,0 2.031592,1.6011171 0.858865,2.2287411 C 17.887296,9.4687626 14.806616,9.6 10.485037,9.6 c -5.13992,0 -7.26526,0.1082256 -7.54104,0.384 -0.28107,0.281072 -0.384,2.88 -0.384,9.696 0,6.816 -0.10293,9.414928 -0.384,9.696 -0.2112,0.2112 -0.7872,0.384 -1.28,0.384 H -3e-6 V 16.486097 3.2121933 l 0.80416,-0.2018302 c 1.16273,-0.291828 1.75584,0.3583591 1.75584,1.9248193 0,0.7352496 0.1728,1.5096176 0.384,1.7208176 0.26256,0.2625533 1.81885,0.384 4.92082,0.384 5.21361,0 5.346374,-0.062737 5.19373,-2.4543872 -0.0916,-1.4346174 -0.18364,-1.5840533 -1.29855,-2.1073804 C 10.580167,1.924431 10.368937,1.5102507 10.754237,0.50617199 10.926497,0.0572659 12.284117,0 22.754238,0 h 11.805764 v 0.95748172 c 0,0.79295328 -0.206202,1.05427078 -1.2,1.52075068 -1.114906,0.5233271 -1.206989,0.672763 -1.298547,2.1073804 -0.05514,0.8639018 0.06785,1.744608 0.279181,1.9992493 C 32.656706,6.9657043 35.006629,7.04 46.736328,7.04 c 12.316932,0 14.07898,0.06102 14.520816,0.5028573 0.43889,0.4388877 0.502858,1.9979913 0.502858,12.2559997 0,12.443524 0.0093,12.521143 1.504,12.521143 0.718314,0 0.736,0.07594 0.736,3.16 v 3.16 l -1,0.2 c -1.77975,0.355949 -21.817142,0.186998 -22.6,-0.190557 z m 21.068739,-2.68407 c 0.362883,-0.437248 0.33552,-0.581594 -0.181981,-0.96 -0.934896,-0.683616 -18.1571,-0.65177 -18.726758,0.03463 -0.317821,0.38295 -0.317821,0.57705 0,0.96 0.336902,0.405942 1.793376,0.48 9.44,0.48 7.917021,0 9.094758,-0.06401 9.468739,-0.514627 z M 22.000009,9.2543683 c -0.864662,-0.5036195 -0.721875,-1.8415469 0.221813,-2.0783974 0.429997,-0.1079226 0.933997,-0.1021674 1.12,0.012787 0.457363,0.2826675 0.428661,1.5527683 -0.04581,2.0272419 -0.458529,0.4585286 -0.569013,0.4617997 -1.296,0.038368 z"
     id="path221"
     inkscape:connector-curvature="0" />
</svg>
