<?xml version="1.0" encoding="UTF-8" standalone="no"?>
<!-- Created with Inkscape (http://www.inkscape.org/) -->

<svg
   xmlns:dc="http://purl.org/dc/elements/1.1/"
   xmlns:cc="http://creativecommons.org/ns#"
   xmlns:rdf="http://www.w3.org/1999/02/22-rdf-syntax-ns#"
   xmlns:svg="http://www.w3.org/2000/svg"
   xmlns="http://www.w3.org/2000/svg"
   xmlns:sodipodi="http://sodipodi.sourceforge.net/DTD/sodipodi-0.dtd"
   xmlns:inkscape="http://www.inkscape.org/namespaces/inkscape"
   version="1.1"
   id="svg127"
   width="64"
   height="64.000008"
   viewBox="0 0 64 64.000008"
   sodipodi:docname="key-tab-icon-6.svg"
   inkscape:version="0.92.4 (unknown)">
  <path
     style="stroke-width:0.31999999"
     d="m 0,63.049149 c 0,-0.804368 0.160215,-0.992195 1.04,-1.219226 1.028335,-0.265369 1.041057,-0.292198 1.134232,-2.392102 0.07978,-1.798013 0.192561,-2.154935 0.735356,-2.327213 1.064015,-0.337706 1.533667,0.384781 1.635845,2.516486 C 4.634873,61.492976 4.683397,61.6 5.44,61.6 h 0.8 L 6.4,57.283677 c 0.141882,-3.827562 0.225152,-4.328787 0.735372,-4.426423 0.316455,-0.06056 0.804081,0.07971 1.083612,0.3117 0.430245,0.357068 0.481951,0.992371 0.336939,4.139817 -0.09422,2.044909 -0.06059,3.897159 0.07473,4.116109 0.394028,0.637552 1.40769,0.244035 1.873189,-0.727197 0.526703,-1.098928 1.33287,-1.020374 1.91118,0.186231 0.288279,0.601475 0.665186,0.876086 1.202436,0.876086 0.855451,0 0.851526,0.01488 0.801546,-3.04 -0.03661,-2.237914 0.244837,-2.81679 1.297182,-2.667997 0.721687,0.102042 0.772635,0.258003 0.923811,2.827997 0.155608,2.645334 0.181961,2.72 0.96,2.72 0.797167,0 0.800567,-0.0129 0.96,-3.64631 0.128932,-2.938298 0.263528,-3.711383 0.693177,-3.981444 0.386083,-0.242675 0.673,-0.219091 1.04,0.08549 0.405753,0.336747 0.506823,1.116776 0.506823,3.91149 0,2.874332 0.08857,3.524848 0.501509,3.683308 0.72455,0.278036 1.100298,-0.232476 1.941371,-2.637648 0.411168,-1.175798 0.872927,-2.299155 1.026131,-2.496348 0.406934,-0.523783 0.643906,-1.682944 0.411767,-2.01418 C 24.570347,54.34679 23.684981,53.697046 22.713295,53.060483 20.589903,51.669421 18.367589,49.352125 16.786288,46.880154 15.806941,45.349187 15.512583,45.093808 14.93112,45.27064 11.967729,46.171856 9.564029,45.557942 8.78848,43.701795 8.144171,42.159744 8.149962,32.487862 8.79778,28.174781 c 0.509341,-3.391137 1.892294,-6.870465 3.808233,-9.581009 1.16648,-1.650261 3.862715,-4.459011 4.968607,-5.175952 1.02829,-0.666631 0.675495,-1.134992 -1.295934,-1.720444 C 15.391084,11.433787 14.13727,10.894636 13.492432,10.499262 11.880477,9.5109149 9.318876,7.0833952 8.772057,6.0259645 8.318629,5.1491318 8.146522,1.4644196 8.514236,0.506172 8.68891,0.0509808 11.070471,0 32.16,0 53.24953,0 55.631091,0.050981 55.805763,0.506172 55.912595,0.78456659 56,1.9869611 56,3.1781597 56,5.0751782 55.881254,5.5079008 55.043203,6.6647936 53.637651,8.605104 50.674637,10.806959 48.64,11.4231 c -2.870186,0.869168 -2.9888,1.160708 -1.11688,2.745208 2.85056,2.41288 4.23183,4.202406 6.046538,7.833693 C 55.354954,25.574432 56,29.469183 56,36.676269 c 0,5.254675 -0.07007,6.046579 -0.632595,7.149219 -0.959293,1.880365 -2.580621,2.259808 -6.120829,1.432477 -0.745885,-0.174311 -0.934768,-0.01533 -1.798262,1.513635 -1.207245,2.137616 -3.667463,4.895702 -5.268544,5.906422 -1.377431,0.869533 -1.508951,1.54777 -0.64337,3.317796 0.812147,1.660748 1.379315,1.557049 2.963885,-0.541914 0.769763,-1.019648 1.95751,-2.537904 2.63944,-3.373904 l 1.239872,-1.52 H 56.189798 64 v 1.12 1.12 l -7.28,0.0049 c -4.004,0.0026 -7.426483,0.110694 -7.605517,0.24 -0.179033,0.129306 -1.673629,2.035101 -3.321318,4.235101 -1.64769,2.2 -3.187287,4 -3.421325,4 -0.234042,0 -1.127248,-1.368 -1.984902,-3.04 -0.987949,-1.926003 -1.775808,-3.081927 -2.15,-3.15441 -0.324845,-0.06293 -1.654845,0.136208 -2.955559,0.442522 -2.282281,0.537469 -3.700977,0.530528 -6.855646,-0.03354 -1.134976,-0.202938 -1.198019,-0.163402 -1.884185,1.181593 -0.390456,0.765357 -1.037507,2.33032 -1.43789,3.477693 -0.400384,1.147376 -0.9205,2.481015 -1.155814,2.963642 L 23.52,63.995008 11.76,63.997508 0,64.000008 Z m 35.617747,-9.79744 1.491754,-0.508295 -0.07475,-1.491705 c -0.06611,-1.319133 0.0064,-1.503258 0.626774,-1.591546 0.511876,-0.07284 0.838503,0.16505 1.208218,0.88 0.296579,0.573527 0.759782,0.979837 1.11703,0.979837 0.335687,0 1.548084,-0.923997 2.694215,-2.053325 6.309443,-6.21695 6.554736,-15.30208 0.58471,-21.656682 C 38.537581,22.777297 31.55931,21.472959 25.44,24.478116 21.736882,26.296695 19.294791,28.985671 17.591561,33.12 c -0.661529,1.60576 -0.790563,2.443734 -0.788397,5.12 0.0022,2.730486 0.132253,3.532192 0.886318,5.46407 1.09352,2.801556 3.345583,5.651456 5.797029,7.33593 l 1.86281,1.28 0.525339,-0.731264 c 1.517391,-2.112182 1.580889,-2.164032 2.185292,-1.784451 0.319027,0.200358 0.530389,0.632358 0.469695,0.96 -0.345142,1.863174 -0.21072,2.479261 0.590353,2.705744 1.469143,0.415357 4.984662,0.297238 6.497747,-0.21832 z M 31.417744,50.8 c 0.06712,-0.472582 0.322184,-0.72 0.742256,-0.72 0.420074,0 0.675139,0.247418 0.742256,0.72 0.08388,0.590618 -0.0495,0.72 -0.742256,0.72 -0.692756,0 -0.826137,-0.129382 -0.742256,-0.72 z m -8.893411,-3.257555 c -0.318614,-0.830295 0.127962,-1.516541 0.914236,-1.40489 0.528875,0.0751 0.721431,0.315971 0.721431,0.902445 0,0.586474 -0.192556,0.827344 -0.721431,0.902445 -0.432729,0.06145 -0.798587,-0.09862 -0.914236,-0.4 z m 17.600464,0.0013 C 39.827789,46.769661 40.226614,46.08 40.971213,46.08 c 0.543107,0 0.651961,0.16752 0.570041,0.877264 -0.113587,0.984122 -1.106153,1.395024 -1.416457,0.586387 z M 29.724525,47.38871 c -5.047667,-1.628054 -7.976418,-6.783552 -6.574212,-11.57263 0.60623,-2.070509 2.838386,-4.776861 4.804228,-5.824829 1.900399,-1.013082 6.498579,-1.019692 8.387286,-0.01205 1.542653,0.823013 3.374183,2.769711 4.284314,4.553711 0.875952,1.717008 0.904934,5.470413 0.05745,7.440637 -0.782998,1.820313 -2.75335,3.81176 -4.710668,4.761104 -1.68018,0.814924 -4.752541,1.136528 -6.248397,0.654064 z m 5.085753,-2.444854 c 1.379424,-0.575341 3.119453,-2.152557 3.79232,-3.437472 0.572109,-1.092506 0.636522,-5.005811 0.09952,-6.045738 -1.475693,-2.857721 -3.442877,-4.086517 -6.542115,-4.086517 -4.190461,0 -7.211447,2.912921 -7.192972,6.935666 0.0121,2.634122 1.709799,5.232115 4.312972,6.600151 1.238102,0.650652 4.010822,0.667654 5.530278,0.03391 z m -4.861832,-4.64841 c -2.187755,-2.599996 0.561826,-6.215587 3.51668,-4.624294 2.858058,1.539165 1.784314,5.608848 -1.479835,5.608848 -0.956521,0 -1.38108,-0.205219 -2.036845,-0.984554 z M 32.8,38.24 c 0,-0.953005 -1.249151,-0.857792 -1.385613,0.105613 -0.08788,0.620419 0.01958,0.727878 0.64,0.64 C 32.551462,38.915203 32.8,38.666666 32.8,38.24 Z m -13.52,0.886195 c -0.22,-0.07674 -0.4,-0.472121 -0.4,-0.878624 0,-0.763456 0.501904,-1.137277 1.2,-0.893766 0.22,0.07674 0.4,0.472121 0.4,0.878624 0,0.763456 -0.501904,1.137277 -1.2,0.893766 z M 43.904,38.976 C 43.386896,38.458896 43.420518,37.920925 44,37.44 c 0.38295,-0.317821 0.57705,-0.317821 0.96,0 0.628637,0.521722 0.614102,1.480067 -0.02618,1.725763 -0.64446,0.247306 -0.581074,0.258986 -1.029823,-0.189763 z M 22.506199,29.895187 c -0.106544,-0.277647 0.04198,-0.740505 0.330043,-1.028572 0.485011,-0.485011 0.562505,-0.485011 1.047516,0 C 24.537992,29.52085 24.237701,30.4 23.36,30.4 c -0.363047,0 -0.747258,-0.227166 -0.853801,-0.504813 z m 17.615401,0.04014 c -0.248128,-0.646615 0.120896,-1.135324 0.857286,-1.135324 0.449188,0 0.621114,0.221442 0.621114,0.8 0,0.590787 -0.169997,0.8 -0.650042,0.8 -0.357526,0 -0.730284,-0.209104 -0.828358,-0.464676 z m -8.705302,-3.909962 c 0.07531,-0.657461 0.278943,-0.905362 0.743702,-0.905362 0.984851,0 0.889706,1.564623 -0.103702,1.705362 -0.646695,0.09162 -0.730176,-0.01273 -0.64,-0.8 z M 13.856059,43.120003 c 0.466991,-0.34696 0.555608,-1.291082 0.668296,-7.12 0.110406,-5.710876 0.229476,-7.019856 0.792915,-8.716815 C 17.314885,21.2668 21.53296,17.020215 27.2,15.320143 c 8.580397,-2.57406 17.536714,1.760937 21.189098,10.255855 l 1.042201,2.424005 0.164349,7.306547 c 0.152016,6.758173 0.210973,7.340583 0.785514,7.76 0.732262,0.534557 1.893315,0.585965 2.759875,0.122195 0.581037,-0.310963 0.618963,-0.733056 0.618963,-6.88848 0,-6.782435 -0.424867,-9.794988 -1.824995,-12.940262 -1.714685,-3.851905 -5.724208,-8.223767 -9.125879,-9.95058 l -1.830876,-0.92942 h -8.800378 -8.800377 l -1.848748,0.857601 C 18.81774,14.595191 14.642751,18.912082 12.914248,22.244897 11.030633,25.876792 10.56,28.740301 10.56,36.56904 c 0,5.642566 0.05677,6.31223 0.56,6.605331 0.774105,0.450877 2.091252,0.424701 2.736059,-0.05437 z M 46.540333,26.622884 c -1.278371,-3.061375 -3.645063,-5.969275 -6.099351,-7.494141 -5.022003,-3.120206 -11.504987,-3.139408 -16.48462,-0.04883 -2.750445,1.707049 -6.218832,6.253604 -5.978175,7.836525 0.0882,0.580147 0.37814,0.406276 2.168771,-1.300579 2.248556,-2.143354 5.550121,-3.928925 8.391359,-4.538261 0.91606,-0.19646 3.043153,-0.290864 4.726873,-0.209787 2.457072,0.118316 3.471213,0.327826 5.138058,1.061465 2.77911,1.223188 4.520611,2.431528 6.472742,4.491112 0.89392,0.943126 1.745232,1.64066 1.891802,1.550074 0.14657,-0.09058 0.04421,-0.696997 -0.227459,-1.347582 z M 47.834278,9.453747 c 2.491344,-0.9377389 3.661988,-1.7319578 3.675668,-2.493744 0.0095,-0.5272675 -1.120455,-0.56 -19.33106,-0.56 -12.060788,0 -19.412844,0.1160602 -19.531673,0.308328 C 12.225954,7.3899438 14.70867,9.0044622 17.6,9.9291438 18.04,10.069861 24.552713,10.19737 32.072694,10.212498 l 13.672695,0.0275 z M 53.427242,4.0153755 C 53.639325,3.7598305 53.762998,3.2918305 53.702067,2.9753756 53.597002,2.4296713 52.518989,2.3954499 32.795645,2.3117033 21.35804,2.2631385 11.676,2.3018823 11.28,2.3978 10.485713,2.5901898 10.247801,3.9806945 10.96,4.2680731 11.18,4.3568451 20.738368,4.4408452 32.200819,4.45474 50.050742,4.476378 53.096973,4.413324 53.427242,4.0153755 Z M 51.862285,60.521642 c -0.26209,-0.489719 -0.224778,-0.753434 0.161206,-1.139418 0.854695,-0.854694 1.852285,-0.372653 1.684506,0.813965 -0.14136,0.999779 -1.368976,1.216243 -1.845712,0.325453 z m 4.351049,0.385024 C 56.096,60.789334 56,60.34777 56,59.925411 c 0,-0.648441 0.136493,-0.752166 0.877264,-0.666665 0.55543,0.06411 0.919168,0.321977 0.991485,0.702908 0.159414,0.839696 -1.062938,1.537488 -1.655415,0.945012 z M 60.224,60.736 c -0.560438,-0.560438 -0.470432,-1.147226 0.233776,-1.524106 0.466326,-0.249571 0.740902,-0.2075 1.12,0.171597 C 61.854,59.659715 62.08,59.990627 62.08,60.118858 62.08,60.473715 61.356989,61.12 60.96,61.12 c -0.1936,0 -0.5248,-0.1728 -0.736,-0.384 z m -9.450666,-3.989334 c -0.429385,-0.429383 -0.196582,-1.373114 0.420141,-1.703175 0.393744,-0.210723 2.651338,-0.305811 5.965527,-0.251257 4.496006,0.07401 5.383075,0.168752 5.657452,0.604272 0.17897,0.284076 0.235002,0.752076 0.124516,1.04 C 62.765078,56.89487 62.008931,56.96 56.863376,56.96 c -3.232189,0 -5.97271,-0.096 -6.090042,-0.213334 z"
     id="path158"
     inkscape:connector-curvature="0" />
</svg>
