<?xml version="1.0" encoding="UTF-8" standalone="no"?>
<!-- Created with Inkscape (http://www.inkscape.org/) -->

<svg
   xmlns:dc="http://purl.org/dc/elements/1.1/"
   xmlns:cc="http://creativecommons.org/ns#"
   xmlns:rdf="http://www.w3.org/1999/02/22-rdf-syntax-ns#"
   xmlns:svg="http://www.w3.org/2000/svg"
   xmlns="http://www.w3.org/2000/svg"
   xmlns:sodipodi="http://sodipodi.sourceforge.net/DTD/sodipodi-0.dtd"
   xmlns:inkscape="http://www.inkscape.org/namespaces/inkscape"
   version="1.1"
   id="svg87"
   width="63.999996"
   height="57.919998"
   viewBox="0 0 63.999996 57.919998"
   sodipodi:docname="key-tab-icon-2.svg"
   inkscape:version="0.92.4 (unknown)">
  <path
     style="stroke-width:0.31999999"
     d="m 13.255659,56.782804 c -0.167015,-0.890265 0.03886,-1.776182 0.948149,-4.079999 0.638817,-1.618544 1.160295,-3.125968 1.158838,-3.349834 -0.0015,-0.223862 -0.45982,-1.375862 -1.018583,-2.56 -1.459949,-3.093929 -1.41714,-5.617827 0.158641,-9.352972 1.251371,-2.966183 1.788436,-3.567891 2.59047,-2.902263 0.734608,0.609671 0.629502,1.616775 -0.453177,4.342263 -0.528,1.329161 -0.96,2.973833 -0.96,3.654822 0,0.680989 0.432,2.253347 0.96,3.494131 1.197618,2.814362 1.200262,3.852493 0.0178,6.990582 -0.518208,1.375255 -1.028733,3.040464 -1.1345,3.700464 -0.171092,1.067629 -0.295004,1.2 -1.123305,1.2 -0.813326,0 -0.957964,-0.143734 -1.144338,-1.137194 z m 10.898958,0.09719 c -0.141426,-0.756678 0.07357,-1.693821 0.789182,-3.44 1.500743,-3.661984 1.531427,-4.316777 0.330506,-7.052966 -1.383526,-3.15224 -1.49093,-4.235897 -0.633033,-6.387033 0.386049,-0.968 1.011691,-2.622167 1.390316,-3.675923 0.711404,-1.979924 1.398743,-2.502436 2.303781,-1.751319 0.7147,0.593149 0.557408,1.960794 -0.495372,4.307242 -0.587611,1.309673 -0.96,2.6751 -0.96,3.52 0,0.844899 0.372389,2.210326 0.96,3.519999 1.242626,2.769578 1.24068,4.421242 -0.0087,7.350768 -0.523196,1.226929 -0.9513,2.408154 -0.9513,2.624948 0,1.073907 -0.768489,2.024288 -1.636865,2.024288 -0.755561,0 -0.92426,-0.161181 -1.088515,-1.04 z m 11.386446,0.130854 c -0.390026,-0.9416 -0.01738,-2.447881 1.139094,-4.60447 0.907942,-1.693113 0.916666,-3.792012 0.02371,-5.706876 -0.446144,-0.95673 -0.985322,-2.336487 -1.198176,-3.066125 -0.411482,-1.410531 -0.49152,-1.062998 1.56209,-6.782707 0.776246,-2.162 1.453011,-2.895462 2.218211,-2.404048 0.836281,0.537062 0.681939,2.799491 -0.343287,5.032041 -1.082912,2.35817 -1.085529,3.605584 -0.01238,5.901837 1.309181,2.801296 1.346852,4.860637 0.143876,7.864925 -0.546816,1.365609 -0.998791,2.724047 -1.004388,3.018748 -0.03158,1.662925 -1.91846,2.220071 -2.528758,0.746675 z m 11.373171,0.402973 c -0.354381,-0.923497 -0.20368,-1.832163 0.823667,-4.966454 l 1.017904,-3.105475 -0.90591,-2.51095 c -1.347591,-3.735159 -1.355604,-4.822432 -0.06444,-8.744285 1.151008,-3.496131 1.717917,-4.264553 2.694538,-3.652345 0.904432,0.566956 0.824246,1.472684 -0.410026,4.63134 -1.311475,3.356231 -1.304438,3.654912 0.165015,7.002928 1.126221,2.565987 1.181011,3.686166 0.297958,6.091414 -0.355389,0.968 -0.956048,2.66 -1.3348,3.76 -0.562803,1.634547 -0.81664,2 -1.389155,2 -0.385286,0 -0.787926,-0.227776 -0.894755,-0.506173 z M 4.20746,27.126631 0,22.893264 V 11.446632 0 h 31.999997 32 l -0.04165,11.76 -0.04165,11.759999 -4.075059,3.92 -4.075063,3.92 H 32.090752 8.41493 Z m 49.808537,1.289368 c 0.526605,-0.526605 0.526605,-7.025394 0,-7.552 -0.291104,-0.291103 -5.62439,-0.384 -22.045764,-0.384 -19.457498,0 -21.681528,0.05151 -21.856,0.506172 -0.324952,0.84681 -0.216641,6.534039 0.137023,7.194865 0.322465,0.602533 0.902625,0.618963 21.855999,0.618963 16.3148,0 21.617686,-0.09295 21.908742,-0.384 z m -40.176,-2.825972 c -0.913606,-0.367224 -0.976583,-1.750191 -0.101037,-2.218769 0.824594,-0.441309 12.97748,-0.441309 13.802074,0 0.930352,0.497909 0.808078,1.852681 -0.201869,2.236661 -1.026575,0.390304 -12.521537,0.375068 -13.499168,-0.01789 z m 22.632666,-0.317362 c -0.512442,-0.512442 -0.5772,-0.778381 -0.310762,-1.276221 0.496973,-0.928602 1.191334,-1.005184 8.12432,-0.896041 5.715738,0.08998 6.368182,0.156662 6.758163,0.6907 0.551392,0.755069 0.279799,1.457522 -0.708861,1.833409 -0.427456,0.162518 -3.575814,0.295487 -6.996358,0.295487 -5.815987,0 -6.261133,-0.04197 -6.866502,-0.647334 z M 31.16289,25.138691 c -0.340858,-0.888263 0.02312,-1.618692 0.806614,-1.618692 1.009411,0 1.581216,0.888221 1.012755,1.573177 -0.525347,0.633003 -1.583768,0.659481 -1.819369,0.04552 z M 7.68,22.121753 c 0.12273,-2.996908 0.27181,-3.977452 0.64,-4.209473 0.28986,-0.182662 9.673443,-0.304421 23.688794,-0.30738 20.493113,-0.0043 23.292019,0.05339 23.92,0.493245 0.664118,0.465165 0.711203,0.739331 0.711203,4.141114 0,2.308141 0.129203,3.722822 0.352621,3.860901 0.198144,0.12246 1.319635,-0.741671 2.56,-1.972532 l 2.207379,-2.190464 v -9.304582 c 0,-6.8102305 -0.102941,-9.4075239 -0.384,-9.6885821 C 60.819363,2.387366 3.50063,2.387366 2.944,2.9439999 2.66297,3.2250264 2.56,5.8186596 2.56,12.615969 v 9.287969 l 2.15355,2.17018 c 1.18445,1.193599 2.30045,2.121681 2.48,2.062405 0.18611,-0.06145 0.39523,-1.787291 0.48645,-4.01477 z M 8.24,8.2943682 C 7.59323,7.9176618 7.50701,7.0209854 8.064,6.4639998 c 0.51304,-0.5130448 5.118952,-0.5130448 5.631997,0 0.576596,0.5765958 0.462625,1.4714034 -0.234963,1.8447414 C 12.669305,8.7324612 8.9747,8.7222902 8.24,8.2943712 Z"
     id="path242"
     inkscape:connector-curvature="0" />
</svg>
