<?xml version="1.0" encoding="UTF-8" standalone="no"?>
<!-- Created with Inkscape (http://www.inkscape.org/) -->

<svg
   xmlns:dc="http://purl.org/dc/elements/1.1/"
   xmlns:cc="http://creativecommons.org/ns#"
   xmlns:rdf="http://www.w3.org/1999/02/22-rdf-syntax-ns#"
   xmlns:svg="http://www.w3.org/2000/svg"
   xmlns="http://www.w3.org/2000/svg"
   xmlns:sodipodi="http://sodipodi.sourceforge.net/DTD/sodipodi-0.dtd"
   xmlns:inkscape="http://www.inkscape.org/namespaces/inkscape"
   version="1.1"
   id="svg77"
   width="64.041145"
   height="64.000671"
   viewBox="0 0 64.041145 64.000671"
   sodipodi:docname="key-tab-icon-1.svg"
   inkscape:version="0.92.4 (unknown)">
  <path
     style="stroke-width:0.31999999"
     d="m 0,48.832672 v -15.168 l 1.12,-1.12 1.12,-1.12 V 25.62954 C 2.24,20.230403 2.1963,19.796963 1.6,19.286423 0.71777,18.531027 0.79314,17.922754 2,16.05841 3.8799,13.154375 6.23518,9.2068902 6.49923,8.5176533 6.6418,8.1454943 7.0629,7.5169269 7.43501,7.1208367 L 8.11157,6.4006725 h 12.684138 12.684143 l 1.900077,-1.3829958 c 1.045043,-0.7606477 2.872077,-2.0639233 4.060077,-2.8961682 1.188,-0.8322449 2.16,-1.64989686 2.16,-1.81700426 0,-0.57438219 0.928262,-0.30267689 1.823514,0.5337481 0.493068,0.46066896 1.688486,1.37403696 2.656486,2.02970686 0.968,0.6556698 3.175235,2.1867587 4.90497,3.4024202 1.729734,1.2156611 3.674377,2.5702931 4.32143,3.0102928 1.391299,0.9460948 7.32881,5.2287508 8.1336,5.8666688 0.728982,0.577832 0.828125,4.373331 0.114237,4.373331 -0.245171,0 -0.523088,0.201505 -0.617597,0.447789 -0.09451,0.246285 -0.721914,0.627152 -1.394237,0.846372 -0.672323,0.219221 -1.328198,0.557715 -1.457504,0.752211 -0.129305,0.194495 -0.237305,6.072561 -0.24,13.06237 -0.0047,12.234592 -0.028,12.721098 -0.623862,13.04 -0.396669,0.212292 -5.153741,0.331258 -13.245763,0.331258 -13.9357,0 -13.015274,-0.144419 -13.015274,2.042173 0,0.566403 0.1728,1.202627 0.384,1.413827 0.283965,0.283965 3.287155,0.384 11.528192,0.384 h 11.144192 l 2.791808,1.403635 c 1.535494,0.771997 3.331808,1.652407 3.991808,1.956461 0.66,0.304054 1.2,0.657251 1.2,0.784883 0,0.127632 -0.597517,0.507223 -1.327814,0.843539 -0.730298,0.336314 -2.525984,1.223482 -3.99042,1.971482 l -2.662604,1.36 H 44.992443 c -12.465705,0 -12.032438,-0.08724 -12.032438,2.422858 v 1.417142 h -16.48 H 0 Z m 30.708371,12.782016 c 0.542168,-0.65327 0.185351,-1.06257 -1.267327,-1.453738 -2.636808,-0.710016 -4.270135,-3.108972 -3.540934,-5.200758 0.5162,-1.480771 1.8811,-2.760819 3.195947,-2.997261 0.629171,-0.113139 1.323948,-0.348566 1.543948,-0.523165 0.306839,-0.243523 0.4,-3.026016 0.4,-11.947017 0,-11.170299 -0.02444,-11.642641 -0.618963,-11.960818 -0.929079,-0.497228 -19.936119,-0.448177 -20.437037,0.05274 -0.250999,0.250999 -0.384,1.57447 -0.384,3.821115 0,2.399394 -0.120766,3.514648 -0.4,3.693919 C 8.980005,35.240949 7.36,35.429445 5.6,35.518591 l -3.2,0.16208 -0.0837,12.762742 c -0.0601,9.155111 0.0189,12.886343 0.27918,13.2 0.55787,0.672192 27.554074,0.644608 28.112891,-0.02874 z M 4.31169,59.827213 c -0.11657,-0.188605 -0.12364,-0.69473 -0.0157,-1.12473 l 0.19623,-0.781811 h 9.394719 c 8.181461,0 9.449042,0.06545 9.815347,0.506822 0.305159,0.367693 0.328343,0.653188 0.08446,1.04 -0.299317,0.47473 -1.373582,0.542468 -9.799636,0.617908 -6.47212,0.05794 -9.53046,-0.02368 -9.6754,-0.258189 z m -0.0341,-4.301767 c -0.10232,-0.266627 -0.10314,-0.700774 -0.002,-0.964774 0.15809,-0.411955 1.54954,-0.48 9.815495,-0.48 h 9.631299 l -0.101256,0.88 -0.101263,0.88 -9.528211,0.08477 c -8.268484,0.07357 -9.552804,0.02067 -9.714234,-0.4 z m 0.0786,-4.186025 C 3.9691,50.330688 4.1373,38.231437 4.54406,37.824672 c 0.27281,-0.27281 2.21867,-0.384 6.720005,-0.384 5.757442,0 6.387135,-0.05423 6.896,-0.593869 0.308,-0.326627 1.045512,-1.12479 1.638915,-1.773696 1.125946,-1.231254 1.529455,-1.31248 2.091748,-0.421059 0.250532,0.397174 0.192586,0.77672 -0.227039,1.487088 -0.557395,0.943594 -0.554689,0.959533 0.25272,1.488566 l 0.816146,0.534759 -0.08624,6.759107 -0.08625,6.759104 -9.003875,0.08492 c -8.00164,0.07547 -9.02571,0.02803 -9.2,-0.426173 z M 20.240065,49.61464 c 0.132,-0.0077 0.24,-2.156336 0.24,-4.774787 0,-6.05865 -0.204908,-6.355971 -2.645199,-3.838192 -0.921141,0.95039 -2.538801,2.781078 -3.594801,4.068195 -2.706404,3.298726 -2.751216,3.311187 -4.670692,1.298637 C 7.9292,44.648794 7.74635,44.009805 8.719109,43.39721 9.173169,43.111264 9.431,43.209987 10.09206,43.922912 c 0.987395,1.064861 1.269629,1.086301 2.076633,0.15776 0.344167,-0.396 1.203021,-1.354915 1.908565,-2.130925 2.032719,-2.235731 1.940934,-2.300451 -3.117193,-2.198105 l -4.400005,0.08903 -0.0893,4.637523 c -0.071,3.688103 0.003,4.704736 0.35973,4.965834 0.34016,0.248733 9.96357,0.371171 13.409525,0.170611 z M 11.733398,31.147339 c -0.514318,-0.514319 -0.193353,-1.699363 0.506667,-1.870678 0.396,-0.09691 4.232403,-0.135656 8.52534,-0.0861 6.874493,0.07936 7.845424,0.153694 8.141444,0.623285 0.243809,0.386766 0.220599,0.67235 -0.08452,1.04 -0.363828,0.438386 -1.531652,0.506826 -8.648113,0.506826 -4.525116,0 -8.323484,-0.096 -8.440818,-0.213333 z m 21.680494,26.579096 c 0.364,-0.13968 0.506173,-0.624406 0.506173,-1.725763 0,-1.77281 -0.205069,-1.92 -2.67497,-1.92 -2.173824,0 -3.156559,0.657792 -3.023012,2.023443 0.06749,0.690163 0.346932,1.127242 0.897982,1.404541 0.836286,0.420842 3.422797,0.552026 4.293827,0.217779 z m 20.602173,-0.189763 c 0.584157,-0.584157 0.492701,-3.025814 -0.122173,-3.261763 -0.660477,-0.25345 -16.567177,-0.25345 -17.227654,0 -0.633165,0.242966 -0.724112,3.184489 -0.106173,3.433833 0.22,0.08877 4.1512,0.172772 8.736,0.186666 6.086163,0.01843 8.439638,-0.07837 8.72,-0.358736 z m 4.390758,-1.021373 c 0.517501,-0.378406 0.544864,-0.522752 0.181981,-0.96 -0.874925,-1.054217 -2.313897,-0.327773 -1.833017,0.925373 0.230352,0.600294 0.859401,0.613488 1.651036,0.03463 z M 40.661042,45.429414 c 0.577785,-0.309222 0.618963,-0.725987 0.618963,-6.264617 V 33.23144 l 0.935386,-0.935382 c 0.935072,-0.935073 0.936732,-0.935386 4.975891,-0.935386 4.231827,0 5.565981,0.3288 6.119597,1.508163 0.147635,0.314512 0.345088,3.23369 0.438777,6.487063 l 0.170349,5.915225 1.28,0.209984 c 2.556624,0.419415 2.417792,1.200131 2.323661,-13.066771 l -0.08366,-12.679902 -1.44,-1.052779 c -0.792,-0.579028 -2.321552,-1.671124 -3.399005,-2.426881 -5.611981,-3.936402 -7.715686,-5.428288 -8.440995,-5.986102 -1.474781,-1.1342098 -2.014195,-1.0933868 -4.033395,0.305249 -1.037632,0.718736 -2.390605,1.652924 -3.006605,2.075975 -0.616,0.42305 -1.696,1.178841 -2.4,1.679536 -0.704,0.500695 -2.576,1.823255 -4.16,2.939022 -1.584,1.115768 -3.06,2.25049 -3.28,2.521605 -0.231807,0.285665 -0.4,1.401159 -0.4,2.652889 0,1.382552 0.143966,2.249084 0.4,2.407597 0.22,0.136205 1.292639,0.207697 2.383643,0.158873 3.510517,-0.157102 3.274245,-0.888681 3.371746,10.440044 l 0.08461,9.83121 3.36,0.17736 c 1.848,0.09755 3.405466,0.205549 3.461037,0.24 0.05557,0.03445 0.379571,-0.08643 0.72,-0.268618 z M 35.520005,24.103746 c -1.400253,-0.287748 -1.6,-0.683621 -1.6,-3.170998 0,-1.995434 0.09329,-2.399486 0.618963,-2.680817 0.773536,-0.413984 15.031715,-0.441249 15.681693,-0.02999 0.669997,0.423931 0.738294,4.994841 0.08276,5.538887 -0.48575,0.403136 -13.0699,0.695036 -14.783414,0.342915 z m 12.293827,-2.21731 c 0.702691,-0.269648 0.63393,-1.314872 -0.11279,-1.714505 -0.657741,-0.352014 -9.591811,-0.458987 -10.821037,-0.129567 -0.696989,0.186786 -1.011613,1.320029 -0.506666,1.824975 0.266628,0.266628 10.749834,0.284127 11.440493,0.0191 z m 3.19184,23.231343 c 0.361703,-0.355088 0.297475,-10.901965 -0.06862,-11.268057 -0.149472,-0.149472 -1.84346,-0.23066 -3.76441,-0.18041 l -3.49264,0.09136 -0.08712,5.815165 c -0.07749,5.172016 -0.02922,5.826758 0.436605,5.92 1.024169,0.205011 6.695318,-0.102323 6.976185,-0.378058 z m -5.193664,-5.718195 c -0.235398,-0.14921 -0.379398,-0.615005 -0.32,-1.035101 0.129776,-0.917843 1.44424,-1.071376 1.974563,-0.230633 0.609719,0.966601 -0.630128,1.915078 -1.654563,1.265734 z M 6.976,32.896672 C 7.38652,32.486154 7.5066,30.333931 7.13946,29.966796 6.85906,29.686394 4.16,32.313923 4.16,32.867299 c 0,0.533786 2.28773,0.557648 2.816,0.02938 z m -0.53497,-6.095884 1.48103,-1.680116 8.269861,-0.09581 c 5.995175,-0.06946 8.337029,-0.201485 8.51407,-0.48 0.344124,-0.541364 0.312192,-2.077557 -0.05755,-2.768417 -0.171353,-0.320185 -0.701678,-0.680069 -1.178496,-0.799743 -0.476818,-0.119673 -1.283665,-0.568237 -1.792993,-0.996809 l -0.926051,-0.77922 h -8.101212 c -7.092049,0 -8.125409,0.06305 -8.295449,0.506172 -0.26453,0.689351 -0.24756,8.293833 0.0191,8.560495 0.37537,0.375369 0.55859,0.245419 2.0677,-1.466551 z M 27.227585,16.98132 c 1.480831,-1.044644 3.3884,-2.376644 4.239043,-2.96 1.632958,-1.119854 4.593607,-3.247932 8.059809,-5.7932891 1.14791,-0.842953 2.273382,-1.6041203 2.501046,-1.6914832 0.227664,-0.087363 1.361799,0.5303261 2.520298,1.3726416 1.158502,0.8423158 4.279482,3.0434827 6.935507,4.8914827 2.656029,1.848 5.640173,3.972 6.631431,4.72 1.907641,1.439496 2.68584,1.650487 3.310668,0.897613 1.033978,-1.245867 0.114772,-2.17389 -7.098569,-7.166636 C 49.403061,7.8436488 47.058831,6.1839506 45.136763,4.7451503 44.001979,3.8956875 42.731042,3.2006725 42.312456,3.2006725 c -0.418585,0 -1.578125,0.6259229 -2.576758,1.3909398 -0.998631,0.765017 -2.136512,1.5603802 -2.528621,1.767474 -0.392112,0.207094 -1.63985,1.0571708 -2.772752,1.8890601 -1.132906,0.8318893 -3.087693,2.2325256 -4.343975,3.1125256 -6.226015,4.361198 -7.370345,5.296833 -7.370345,6.026193 0,0.852602 0.5544,1.493807 1.29158,1.493807 0.287968,0 1.735168,-0.854708 3.216,-1.899352 z m -6.409541,-1.051964 c 0.518078,-0.567223 0.941961,-1.13021 0.941961,-1.251081 0,-0.120872 1.02824,-0.91678 2.284979,-1.768685 1.256738,-0.851905 2.735263,-1.853829 3.285612,-2.226498 0.550348,-0.372669 1.19574,-0.9126678 1.434203,-1.1999998 C 29.294414,8.8449467 30.514569,8.9124843 18.76325,8.9294879 12.36165,8.9387479 9.067876,9.0583592 8.786628,9.2917742 8.06663,9.8893212 4.44608,16.326891 4.64709,16.652136 c 0.11365,0.183884 3.22851,0.308536 7.709839,0.308536 h 7.519153 z"
     id="path137"
     inkscape:connector-curvature="0" />
</svg>
