<?xml version="1.0" encoding="UTF-8" standalone="no"?>
<!-- Created with Inkscape (http://www.inkscape.org/) -->

<svg
   xmlns:dc="http://purl.org/dc/elements/1.1/"
   xmlns:cc="http://creativecommons.org/ns#"
   xmlns:rdf="http://www.w3.org/1999/02/22-rdf-syntax-ns#"
   xmlns:svg="http://www.w3.org/2000/svg"
   xmlns="http://www.w3.org/2000/svg"
   xmlns:sodipodi="http://sodipodi.sourceforge.net/DTD/sodipodi-0.dtd"
   xmlns:inkscape="http://www.inkscape.org/namespaces/inkscape"
   version="1.1"
   id="svg132"
   width="64"
   height="19.492161"
   viewBox="0 0 64 19.492161"
   sodipodi:docname="more-arow.svg"
   inkscape:version="0.92.4 (unknown)">
  <path
     style="stroke-width:0.31999999"
     d="m 52.864,19.122081 c -0.774115,-0.774116 -0.326464,-1.537122 2.366461,-4.033555 1.912221,-1.772692 2.715465,-2.731513 2.635632,-3.146108 -0.110877,-0.575806 -1.108995,-0.59915 -28.990461,-0.678039 L 0,11.182679 V 9.7460809 8.3094839 l 28.875632,-0.0817 C 56.757098,8.1488929 57.755216,8.1255489 57.866093,7.549743 57.945923,7.1351478 57.142682,6.1763273 55.230461,4.4036354 52.537536,1.9072023 52.089885,1.1441957 52.864,0.37007996 c 0.894672,-0.89467337 1.75824,-0.3436354 5.676845,3.62236914 2.177168,2.2035031 4.296137,4.0911138 4.708822,4.1946908 C 63.890678,8.3480229 64,8.5751569 64,9.7460809 c 0,1.1709231 -0.109322,1.3980571 -0.750333,1.5589401 -0.412685,0.103577 -2.531654,1.991188 -4.708822,4.194691 -3.918605,3.966004 -4.782173,4.517042 -5.676845,3.622369 z"
     id="path142"
     inkscape:connector-curvature="0" />
</svg>
