<?xml version="1.0" encoding="UTF-8" standalone="no"?>
<!-- Created with Inkscape (http://www.inkscape.org/) -->

<svg
   xmlns:dc="http://purl.org/dc/elements/1.1/"
   xmlns:cc="http://creativecommons.org/ns#"
   xmlns:rdf="http://www.w3.org/1999/02/22-rdf-syntax-ns#"
   xmlns:svg="http://www.w3.org/2000/svg"
   xmlns="http://www.w3.org/2000/svg"
   xmlns:sodipodi="http://sodipodi.sourceforge.net/DTD/sodipodi-0.dtd"
   xmlns:inkscape="http://www.inkscape.org/namespaces/inkscape"
   version="1.1"
   id="svg61"
   width="64.033096"
   height="63.996391"
   viewBox="0 0 64.033096 63.996391"
   sodipodi:docname="request-btn-icon.svg"
   inkscape:version="0.92.4 (unknown)">
  <path
     style="stroke-width:0.31999999"
     d="M 2.88,63.579167 C 2.88,63.061356 0.909402,61.116393 0.384765,61.116393 0.088304,61.116393 0,55.277852 0,35.676393 c 0,-21.428477 0.0697,-25.44 0.442019,-25.44 0.243111,0 0.816633,-0.4911444 1.274495,-1.0914316 1.195565,-1.5674666 2.843359,-2.038416 7.775873,-2.2223904 3.275921,-0.1221863 4.343023,-0.058964 4.800001,0.2843836 0.546864,0.4108823 0.428065,0.5922544 -1.71313,2.615468 -1.381112,1.3050124 -2.390665,2.5432654 -2.525711,3.0978784 -0.334139,1.372253 0.221633,3.082106 1.249919,3.845428 0.880045,0.653279 1.218793,0.670664 13.067706,0.670664 h 12.164242 l 0.772292,-0.897844 C 37.919475,15.827326 38.08,15.27878 38.08,13.89947 38.08,12.346201 37.954262,12.019059 36.9152,10.868942 36.27456,10.15983 35.343075,9.3390353 34.845235,9.0449537 33.770602,8.4101518 33.456157,7.7552894 33.943827,7.1676826 c 0.277466,-0.3343267 1.27328,-0.3890115 4.56552,-0.2507145 5.990487,0.2516422 7.593267,0.882015 8.851565,3.4813099 0.62144,1.283721 0.638893,1.977952 0.632061,25.139145 -0.0067,22.731047 -0.03487,23.880295 -0.616599,25.161642 -0.33526,0.73847 -0.908099,1.52911 -1.272972,1.756976 C 45.738531,62.683907 45.44,63.123705 45.44,63.433369 c 0,0.531722 -1.18311,0.563024 -21.28,0.563024 -17.279263,0 -21.28,-0.07844 -21.28,-0.417226 z m 12.214803,-9.712371 c 0.726139,-0.657145 0.743937,-1.324605 0.0556,-2.085206 -0.441593,-0.487955 -1.029998,-0.585197 -3.541036,-0.585197 -3.359481,0 -4.249367,0.29913 -4.249367,1.428403 0,1.453927 0.731179,1.771597 4.07766,1.771597 2.409414,0 3.198156,-0.114218 3.657143,-0.529597 z m 25.153994,0.03146 C 40.639958,53.624268 40.96,53.128435 40.96,52.796393 c 0,-0.332042 -0.320042,-0.827875 -0.711203,-1.101856 -0.600813,-0.420826 -2.044474,-0.498144 -9.301036,-0.498144 -5.309241,0 -8.826227,0.126512 -9.208798,0.331258 -0.796437,0.42624 -0.834878,2.07118 -0.05896,2.52311 0.341672,0.199005 3.931913,0.329965 9.208798,0.335901 7.32086,0.0082 8.757996,-0.06676 9.359999,-0.488413 z M 15.061037,47.025135 C 15.412256,46.837167 15.68,46.357561 15.68,45.916393 c 0,-0.441168 -0.267744,-0.920774 -0.618963,-1.108742 -0.783512,-0.419322 -6.269245,-0.435012 -7.044427,-0.02016 -0.89968,0.481494 -1.028241,1.237257 -0.329353,1.936147 0.542128,0.542128 1.071113,0.632742 3.69378,0.632742 1.683571,0 3.339571,-0.149065 3.68,-0.331257 z m 25.28,0 c 0.828352,-0.443321 0.783651,-1.4371 -0.09224,-2.050598 -0.601146,-0.421059 -2.050906,-0.498144 -9.368797,-0.498144 -7.317891,0 -8.76765,0.07709 -9.368798,0.498144 -0.848951,0.59463 -0.891197,1.01257 -0.181606,1.796659 0.488967,0.540301 1.2148,0.585197 9.461037,0.585197 5.544717,0 9.166148,-0.12561 9.550404,-0.331258 z M 15.195555,40.000083 c 0.680279,-0.564583 0.603583,-1.837412 -0.134518,-2.232432 -0.340429,-0.182192 -1.996429,-0.331258 -3.68,-0.331258 -2.634371,0 -3.150245,0.08921 -3.701037,0.64 -0.95096,0.95096 -0.737775,1.667389 0.649033,2.181133 1.139121,0.42199 6.280103,0.229241 6.866522,-0.257443 z M 40.56,39.928573 c 0.608333,-0.502707 0.478112,-1.787862 -0.218963,-2.160924 -0.384256,-0.205648 -4.005687,-0.331258 -9.550404,-0.331258 -8.531079,0 -8.957457,0.02874 -9.511809,0.641299 -0.478061,0.528253 -0.516654,0.781139 -0.218927,1.434579 l 0.361442,0.79328 8.24933,0.0999 c 8.806973,0.10666 10.260195,0.04302 10.889331,-0.47688 z m -25.382857,-6.83504 c 0.63827,-0.638268 0.63827,-1.236015 0,-1.874285 -0.386524,-0.386524 -1.205722,-0.502857 -3.541037,-0.502857 -3.350629,0 -4.276106,0.300244 -4.276106,1.387258 0,1.282774 0.568427,1.492742 4.041143,1.492742 2.548917,0 3.384406,-0.111264 3.776,-0.502858 z m 25.279999,0 C 40.733715,32.816964 40.96,32.395249 40.96,32.156391 c 0,-0.238857 -0.226285,-0.660572 -0.502858,-0.937143 -0.433392,-0.433391 -1.750716,-0.502857 -9.535999,-0.502857 -9.490283,0 -9.801143,0.04567 -9.801143,1.44 0,1.394326 0.31086,1.44 9.801143,1.44 7.785283,0 9.102607,-0.06947 9.535999,-0.502858 z M 14.968798,26.378246 c 0.782479,-0.54807 0.922435,-1.402622 0.327202,-1.997855 -0.526605,-0.526605 -7.025395,-0.526605 -7.552,0 -0.624446,0.624445 -0.448476,1.727103 0.336,2.105442 1.158679,0.55881 6.046365,0.482476 6.888798,-0.107587 z m 25.507839,-0.139063 c 0.671779,-0.557528 0.603801,-1.515819 -0.1356,-1.911533 -0.384384,-0.205716 -4.013994,-0.331259 -9.577143,-0.331259 -7.717133,0 -9.027844,0.06967 -9.461037,0.502857 C 21.026286,24.775819 20.8,25.108297 20.8,25.238087 c 0,0.371271 0.75901,1.232701 1.199619,1.361493 0.21979,0.06425 4.358277,0.0997 9.196636,0.07878 6.53347,-0.02824 8.92139,-0.141247 9.280382,-0.439182 z M 58.576061,59.695741 C 58.052992,59.065482 58.277398,57.577709 58.96,57.150305 c 1.272243,-0.796605 2.458998,1.381372 1.354515,2.485856 -0.642694,0.642694 -1.237593,0.663084 -1.738454,0.05958 z m -0.951507,-7.087795 c -1.052586,-0.885693 -1.286468,-2.042624 -0.538436,-2.663437 0.815021,-0.676406 3.601911,-0.815091 4.50384,-0.224124 1.293815,0.84774 0.96056,2.465216 -0.688921,3.343737 -1.110103,0.591245 -2.214416,0.437495 -3.276483,-0.456176 z M 56.8,46.817476 c -1.717462,-0.448573 -1.76,-0.641939 -1.76,-8.000723 0,-7.846793 -0.0076,-7.82798 2.507158,-6.214269 1.874794,1.203049 2.706429,1.242563 4.081287,0.193907 0.57687,-0.44 1.346461,-0.8 1.710205,-0.8 0.649299,0 0.66135,0.134131 0.66135,7.36 v 7.36 h -2.36 c -1.298,0 -2.774,0.06036 -3.28,0.134122 -0.506,0.07377 -1.208,0.0589 -1.56,-0.03304 z m 1.636291,-17.621085 c -0.09176,-0.308 -0.203949,-1.676372 -0.249309,-3.040825 -0.06651,-2.000588 0.02474,-2.588021 0.471277,-3.034576 0.427901,-0.427902 0.679655,-0.474573 1.107744,-0.205361 0.443267,0.278755 0.57257,0.907602 0.646919,3.14622 0.09709,2.923549 -0.1597,3.694542 -1.230541,3.694542 -0.318589,0 -0.65433,-0.252 -0.74609,-0.56 z M 56.169168,19.082666 c -0.756387,-0.553084 -0.45793,-1.392329 0.64416,-1.811343 0.761421,-0.289491 2.200218,-0.240252 5.826672,0.199403 1.72129,0.208681 1.878893,1.089462 0.29728,1.661381 -1.475712,0.533624 -6.01608,0.500457 -6.768112,-0.04944 z m 0.393962,-4.504657 c -0.394605,-0.196731 -0.765213,-0.605656 -0.823581,-0.908723 -0.194912,-1.012105 0.855904,-1.137332 7.540451,-0.898608 0.541283,0.01933 0.72,0.217977 0.72,0.800287 0,0.589628 -0.215664,0.821942 -0.903219,0.972955 -1.697392,0.37281 -5.811194,0.394274 -6.533651,0.03409 z M 13.942857,14.213534 c -0.700593,-0.700594 -0.628554,-1.320537 0.256271,-2.205362 0.66673,-0.666729 2.590596,-1.444841 3.585092,-1.449996 0.599563,-0.0031 1.672978,-1.3999581 1.968615,-2.5617856 0.368017,-1.4462755 1.340141,-1.6288934 2.678082,-0.5030902 1.271143,1.0695964 2.039297,1.038463 3.377973,-0.1369098 1.689185,-1.4831238 2.243198,-1.2669334 2.931087,1.1437878 0.397665,1.3936254 0.947385,1.8081658 3.132918,2.3625078 1.419451,0.360032 3.007105,1.614256 3.007105,2.375568 0,0.259833 -0.226285,0.698709 -0.502858,0.97528 -0.435056,0.435056 -1.81264,0.502857 -10.217142,0.502857 -8.404502,0 -9.782086,-0.0678 -10.217143,-0.502857 z M 58.59993,9.7277246 C 57.535651,9.2802291 56.952461,8.2543366 57.207638,7.2785357 57.60736,5.7500064 60.283568,5.2288266 61.427533,6.4567299 62.246848,7.3361587 62.252134,8.0112474 61.447723,9.0338947 60.63459,10.067627 59.8582,10.256786 58.599934,9.7277246 Z M 26.519302,2.3991546 C 24.424131,0.87252239 24.08381,0.83589219 22.347438,1.950119 21.482964,2.5048511 20.685701,2.8687585 20.575745,2.7588021 20.465789,2.6488458 20.651265,1.9839731 20.987912,1.2813073 L 21.6,0.0037331 24.08,6.2096087e-5 C 26.035035,-0.0028319 26.56,0.094631 26.56,0.46048989 c 0,0.2552546 0.194978,0.57925461 0.433285,0.72000011 0.612503,0.3617479 1.223429,1.6230787 0.886883,1.8310757 -0.15486,0.095709 -0.767249,-0.1798763 -1.360866,-0.6124111 z"
     id="path71"
     inkscape:connector-curvature="0" />
</svg>
